<?xml version="1.0" encoding="UTF-8"?>
<svg id="Capa_1" xmlns="http://www.w3.org/2000/svg" version="1.1" viewBox="0 0 251.4 236.1">
  <!-- Generator: Adobe Illustrator 30.1.0, SVG Export Plug-In . SVG Version: 2.1.1 Build 136)  -->
  <defs>
    <style>
      .st0 {
        fill: #eec53f;
      }
    </style>
  </defs>
  <g id="Capa_2">
    <g id="Capa_1-2">
      <path class="st0" d="M200.1,55.1c.5,1.4,1,2.8,1.5,4.2,1.8,5,4.1,9.6,8.9,12.2,2.6,1.2,5.3,2.2,8,2.9,1.6.5,2.5-.5,2.7-2,.6-4.3,1.2-8.6,1.8-13,.4-2.6-.7-5.2-2.8-6.7-2.6-1.9-5.3-3.6-8.1-5.1-1.4-.8-2.9-1.2-4.3-1.9-2.3-1.2-3.1-2.9-3-5.7.2-5.8,1.9-11.4,4.8-16.4,0,2.2,0,3.8,0,5.4-.1,2.9-.4,5.7-.4,8.6,0,2.1,1.2,4.1,3.2,5,3.6,1.9,7,3.9,10.7,5.6,1.1.3,2.2.1,3.1-.5,1-.6,1.7-1.5,2.1-2.6,1.8-4,5.5-5.2,9-6.6,2.5-1.1,4.6.4,6.4,1.3-1.6-.2-3.2-.1-4.7.2-2.1.4-4,1.3-5.6,2.8-1.4,1.4-2.4,3.2-2.9,5.2-2.8,11.6-3.8,23,2.1,34.1,1.2,2.3.5,4.6-.5,6.8-1.9,4.1-3.7,8.3-5.5,12.4-1.9,4.6-2.6,9.6-2,14.5,1.3-.3,2.5-.8,3.7-1.4,7-3.7,9.1-11.6,9.7-14,.8-3,1-6.2.8-9.3.7,2.1,1.1,4.3,1.2,6.6.1,4-.7,8-2.5,11.6-1.3,2.5-2.7,4.8-4.4,7-.2.2-1,1.3-2.3,2.8-2.1,2.3-3.9,3.8-7.2,7.3-5.6,5.8-8.8,13.5-9,21.5-.3,7.7-.3,15.4,2.1,22.8.4,1.1.7,2.1,1.1,3.2.2.5.5,1,.8,1.5,3.3-3,4.2-6.9,4.7-10.8.4-4.3,2.3-8.3,5.4-11.3,5.1-4.6,8.2-11,8.6-17.9.6-8,3.3-15.7,8-22.2,1.6-2.5,3.8-4.5,6.4-5.8-2,3.7-3.9,7.3-5.7,10.8-3.1,6.2-3.6,12.9-3.2,19.6.3,3,1,6,2,8.9.8,2.4-.4,3.8-2,5.1-3.6,2.8-6.5,6-6.9,10.7-.3,3.2-.2,6.2,3.3,8,2.5,1.3,3.1,4.2,1.8,7.2-.7,1.6-1.7,3.1-2.8,4.4-6.2,7.1-13.9,11.7-23.3,12.8-7.3.9-14.6,1.4-21.9,2.2-7.9.8-16.1.7-23.5,4.1-2.4,1.1-4.7,2.6-7.1,3.8-1,.5-2.2.8-3.3.9-3.9,0-7.7.4-11.1,2.5-3.8,2.1-5.7,6.5-4.9,10.7.2,1.6,0,2.4-1.8,2.6-7.9,1.4-10.4,5.1-9.2,13.1,0,.2,0,.3-.1.5-3.8-1.8-4.3-6.6-1.5-12.8-1.2.5-2.5.8-3.8.8-1.3,0-2.6-.3-3.7-.8.4.5,3.7,4.3,1.8,8.4-.9,1.8-2,3.5-3.2,5.1.5-10.7,0-11.5-11.4-15,2-7.4-2-12-8-15.6h-.2c.1.3.2.6.3.9-3.3,0-6.5-.3-9.7-.7-.9-.2-1.5-2.4-1.7-3.9-.1.9-.2,1.8-.3,2.2-4.7-1.8-9.2-4.1-14-5.3s-9.8-1-14.7-1.6c-9.7-1.1-19.6-.9-29.2-3.6-8.8-2.4-15.4-7.6-20.6-14.9-2.9-4-1.6-7,2.5-9.7,1.1-.7,1.5-2.9,1.8-4.5,1.1-5.8-2-9.9-6.1-13.3-3.3-2.8-3-3.6-2.1-7.6,1.1-4.6,1.5-9.4,1.3-14.1-.5-7-2.4-13.9-6.4-19.9C1.7,108.1.8,106.7,0,105.3c3.2,1,5.2,3.2,7,5.8,4.9,6.9,7.7,15,8.2,23.4.4,6.5,2.6,12,7.3,16.3,4.5,4.1,6.4,9.1,7.1,14.9.4,2.7,1.4,5.2,2.9,7.4,1.7,2.6,4.3,4.3,8.3,4.6-.7-5.3-1.3-10.5-2-15.6-.3-2.5-.8-5-1.2-7.5-.3-2.1.6-3.5,1.9-5.2,1.6-2.4,2.2-5.5,1.4-8.3-1.3-5.8-3.5-10.8-9.4-13.7-3.5-1.7-3.9-5.9-5.5-9.1,3.6,1.5,4.2,7.8,10.1,5.8-1.7-2.5-3.5-4.8-4.9-7.2-.7-1.2-1-2.6-.9-4,.2-2.1,1.1-4,1.6-6.1,1-4.3-.4-8.9-3.5-12-4.8-5.2-11.1-7.7-17.8-9.5-1.6-.5-3.1-1.2-4.4-2.1-3-1.9-4-4.5-3.1-8.1.8-3.3,1.1-6.7,1.8-10,.4-1.2.8-2.3,1.4-3.4l1-1.6c.2,4.9.2,8.6.2,11.1-.2,1.7.2,3.5,1,5,1.1,1.6,2.7,2.8,4.6,3.3,5.2,1.9,10.4,3.7,15.6,5.3,1,.1,2-.2,2.7-.9,3.2-3.1,4-9.9,1.6-14.7-.9-1.9-2.2-3.6-3.3-5.3-1.9-2.8-1.7-6.5.5-9.1.3-.4.9-.8,1-1.2.6-5.9.4-11.7-4.6-15.8-2-1.6-4.7-2.3-7-3.4,2.7-2.7,6.9-3,10-.9,2.6,1.9,5.1,3.9,7.5,6.1.7.8,1.1,1.8,1,2.8,0,3-.2,6.1-.7,9.1-1.2,6.6,2,11.7,5.6,16.5.6.4,1.3.5,2,.3.9-.4,1.7-.9,2.5-1.5.8-.4,1.6-.7,2.5-.9,0,1.1.4,2.4,0,3.3-1.6,3.8-3.3,7.7-5.2,11.4-2.7,5.3-3,11-3.3,16.8,0,1,1.1,1.9,1.4,3,1.6,5.1,2.7,10.3,6.3,14.5.6.7,1.3,1.4,2,2.2,5-3.3,9.3-6.8,8.3-13.7-.2-2.5-.3-5.1,0-7.6,0-.8.3-1.6.7-2.3,1.4,6.5,4.8,12.7,1.7,19.5-.9,1.9-2,3.8-3.1,5.6-2.3,3.5-3.4,7.6-3.2,11.8.4,6.7-.3,13.6-.6,20.3-.2,4.7,1.2,8.6,5.1,11.5.5.4.6,1.6.7,2.4.9,5.2,3.7,9.9,7.8,13.1,3.3-3.5,3.6-11.1,1.3-15.4-1.4-2.6-1.9-5.7-2.6-8.6-.4-2.1-.2-4.3-.5-6.5s-.9-4.1-1.3-6.2c2.2.8,3.8,3.2,4.7,6.8.7,2.8,1.4,5.5,2.1,8.2.6.8,1.2,1.5,1.8,2.3-.2-1.5-.2-3,0-4.5.2-2,.8-3.9,1.5-5.7,2.3-6.5,1.6-10.6-.8-21.1-.2-1,0-2.1.4-3,1.7-3.5.9-9-1.7-12-.6-.8-.9-1.8-.8-2.8,1.1-5.3.6-10.1-4.5-13.7,2.5,0,4.7,1.5,5.7,3.7.5,1.2,1,2.4,1.3,3.7q1.7,5.4,6.2,10.1c3-8,7.3-15.5,4.6-24.5-.6-2.2-2.5-3.9-4.7-4.3-4-.9-7.2-2.6-9.1-6.3,0-.2-.2-.3-.3-.4-6.4-3.8-4.6-9.7-4-15.3.1-1.3.2-2.6.2-3.9.2-3.7,2.1-6.5,4.6-9.5-.2.5-.4,1.2-.6,2.1-1.4,4.9-1.4,10,0,14.9.8,2.6,1.6,4,2.5,4.7,1,.8,2,1.5,3.1,2.1,3.7,1.8,7.2,3.8,10.5,6.1l-1.1-1.3-1.5-1.3c2.7-2.7,2.2-6,1.9-9.4-.6-7-1.8-13.9-4.6-20.3-1.3-3-3.8-5.5-6.1-8-2.5-2.8-5.2-5.3-8-7.8-1.2-1.1-2.7-2-4.2-2.7-1.5-.7-2.9-1.4-2.3-3.2,2.1-6.1,5.4-11.2,12.1-13.4-1.3,1.8-2.7,3.6-3.9,5.4-2.6,3.8-2,6.5,1.6,9.2.5.4,1,.7,1.5,1l6.8,4.3c2.4-8,6.9-15.2,13-20.9,4.4-4,9.5-7.1,15-9.2l3.9-1.2c-2.3,1.4-4.4,3-6.5,4.7-4.7,4-6.4,6.2-13.8,16.7-.8,1.1-1.5,2.4-2.3,3.5-2,2.6-2.3,6.2-.9,9.1.9,2,1.1,4.4,1.9,6.5,1.7,4.5,3.7,9,5.8,14.1,2.9-6,5.6-11.5,8.4-17,.9-1.6,1.9-3,3.2-4.3,1.9-1.9,4.1-3.6,6.1-5.4,3-2.7,6.6-2.5,10.1-2.2l1.6.6c-1.1.3-2.2.7-3.3,1.1-2.8,1.2-9,3.1-13.7,14.1-3.4,7.9-6.5,16-9.8,23.9-2.6,6.2-1.7,12.5-.2,18.8,1.1,4.6.9,9-1.4,13.2-3.9,7.1-5.2,14.9-5.6,22.9,0,1.8.7,2.7,2.5,2.4,6.7-1.3,12.8-3.6,16-10.3.2-.7.7-1.2,1.2-1.7,4-2.4,8.1-4.9,13.6-4-.5.4-1,.7-1.5.9-5.2,1-8.6,4.1-10,9.2-.2.4-.3.8-.4,1.2-.4,5.5-4.1,7.7-8.8,9.6-4,1.7-7.8,3.9-11.3,6.5-3.2,2.3-5.2,5.8-5.6,9.7-.9,6.3-1,12.4,1.8,18.5,1.3,2.8,1.5,6.2,1.7,9.4.2,3.6.4,7.1,2.4,10.3.4.9.6,1.9.4,2.9,0,1.6-.4,3.3-.3,4.9.3-6.7,5.2-13,1-20.3,2.4-.9,4.7-1.6,6.9-2.6,2.4-1.3,4.7-2.6,7-4.1,5.7-3.5,7.6-11,4.1-16.7-.6-1-1.3-1.9-2.2-2.6-.4-.4-.7-.8-1-1.2l-.8-.9c1.7.3,3.4,1,4.8,2,5.4,4.2,7.3,14.6,2.8,19.3-2.3,2.5-4.8,4.8-7.4,7-4.3,3.6-5.5,7.9-3.8,13.3s6.2,5.5,9.4,3.8c5.1-2.8,8-8.4,7.3-14.2v-1.4c2.2.9,3.7,2.9,3.8,5.3.3,2.2.2,4.5-.3,6.7-.6,2.1-2.1,3.9-3.2,6.3,3.4-3.6,6.5-3.1,9.2.5-1.3-3.3-2.9-6.3-3.7-9.5-.9-3.8,1.2-7.7,3.9-8.9-1.1,5.9,1.1,10.6,5.6,14.4,2.6,2.2,5.6,2.1,8.7,1.4.3,0,.5-.4.8-.6,3.3-4,3.1-11.4-.6-15.2-2.6-2.7-5.6-5-8.1-7.9-4.9-5.7-4-15.1,1.8-19.5,1.3-.8,2.6-1.6,4-2.2h1.8c-1,.6-1.9,1.3-2.6,2.2-1.3,1.3-2.3,3-3,4.7-1.1,3.3-.7,6.8.6,10.4.4.8,1.1,1.5,1.9,2,4.5,3,8.8,6.3,14.3,7.5.7.3,1.4.6,2.1,1.1-2.2,5.2-2.3,10.2,1.1,14.8,5.5-3.1,6.9-6,6.2-12.1-.1-1.7.1-3.3.8-4.9,3.1-8.3-1-19-9.1-23.4-.8-.4-1.5-.9-2.3-1.2-2.1-1-3-2.7-3.9-4.9-2.6-6.2-5.5-12.3-8.7-18.1-1.8-2.9-2.2-6.5-1.2-9.8,2.2-7.3,3.5-14.7,1.6-22.5,1.8,1.5,3.3,5.2,3.3,8.7,0,2.3-.4,4.7-.5,7-.3,3.6-.5,7.1-.4,10.7.2,2.2.9,4.2,2,6.1,1.8,2.8,3.8,5.4,5.9,7.9,1.5,1.8,2.4,1.6,2.9-.6.9-3.4,1.4-6.8,1.7-10.3,0-1.8-1-3.8-2-5.4-.8-1.3-2.3-2.1-3.4-3.1,2.1.4,4.1,1.4,5.6,3,1.5,1.8,1.9,3.7,2.6,10.8.8,7.4.9,7,.9,8,0,5.3,3.1,8.8,6.6,12.5,2.2-6.5,4.8-12.5,6.2-18.8.6-2.8-1.3-6.2-1.9-9.3,0-1,0-2.1,0-3.1,0-1.2-.3-2.5-.4-3.7-.7-8.1-1.3-16.3-2-24.4-.6-7.9-4.6-14.4-8.9-20.8-1.2-1.9-1.9-4.1-2.2-6.3-.9-6.3-1.6-12.6-2.3-18.9-.1-1.5,0-2.9.3-4.4,1.1-4.6.6-9-2.3-12.7-1.4-1.9-3.6-3.1-5.5-4.6-.6-.4-1.3-.8-1.9-1.1,4.4-1.1,9.6,2.4,13.7,9.3,3.7-11.3,13.1-14.1,22.8-16.5-3.1,1.8-6.5,3.3-9.3,5.5-2.2,1.7-3.9,3.9-5.2,6.3-3.4,6.7-5.7,13.7-5.8,21.3-.1,7.4,1.3,14.2,7.1,19.5,1.6,1.6,3.2,3.4,4.6,5.2,0-1,.2-2.1.6-3.1,1.3-2.8,2.9-5.4,4.3-8.1,1-2,1-4.3-.2-6.2-1.8-3.5-3.4-7.2-7.7-8.4-.2,0-.4-.5-1-1.5,3.7,1,6.7,1.9,8.6,4.6,2.2,3.2,4.2,6.7,6.1,10.1.3.5,0,1.6-.4,2.3-2.6,5.9-4.8,11.9-5.7,18.3-1,8,.6,15.7,1.7,23.4.5,3.3,1.6,6.6,2.5,10-.9-3.2.5-4.9,3.4-5.7.6-.2,1.1-.7,1.6-.8,5.7-1.4,7.9-5.6,9-10.9.9-4,3.3-5.8,7-6.2-1.4,1.3-3.3,2.4-4,4-1.1,2.7-1.8,5.6-2.1,8.6-.2,2.5-1,4.3-3.4,5.4-4.6,2.2-7.3,6.2-9.3,10.6-.3,1.1-.5,2.2-.4,3.3-.1,2-.4,4-.9,6-1.9,5.9-4.8,11.4-5.1,17.8-.2,5.2.9,10.3,3.3,14.9.6,1.5.9,3.1.7,4.7,0,2.5-.6,5-.8,7.5-.3,4.9,1.9,8.3,6.3,10.3,6.3-6.8,8.6-15.4,10.9-24.3l-1.5,2.5c-.2-4.2-.3-7.9-.6-11.6-.2-2.7-.6-5.4-1.3-8-.7-1.7.1-3.6,1.8-4.3,0,0,0,0,0,0,7.3-3.8,12.2-11.1,12.9-19.3.6-5.3,2.7-9.5,4.7-14.1,1.6-3.8,3.1-7.8,4.2-11.8.8-2.6-1.4-3.7-3.2-4.8-3.4-2-6.8-4-10.2-5.8-2.1-1.1-3.9-2.7-5.2-4.7-1.2-1.9-1.4-3.7-1.9-6.4-.4-2.8-.5-5.7-.2-8.5ZM126.9,195.3c-3.8,3.6-7,7.5-7.6,13-.5,3.7,2.1,7.2,5.8,7.9,3.9.8,7.7-1.4,8.9-5.2,1.5-4.4-2.2-11.9-7.1-15.7ZM114.6,199.8c-3.6,6.3-1.8,14.2,3.8,17.8,1.6-1.1,2-2.4.8-4.2-1.5-2.2-1.7-5-.7-7.5.4-1.3.9-2.6,1.4-4.1l-5.2-2ZM134.1,201.7c0,.7,0,1,0,1.2,1.9,3.6,1.7,7.8-.4,11.2-1,1.6.4,2.5,1.8,3.1,3.6-3.4,5.6-7.3,5-12.2-.2-1.7-.8-3.9-2-4.8-.8-.6-3,.9-4.4,1.4ZM125.8,188.2l-10.1,9.9,2,1.1c1.6.9,1.8.9,2,.9.8,0,1.8-.6,3.2-2.3.4-.5.8-.9,1.3-1.3,2.5-2.1,2.6-4.7,1.7-8.5h0ZM127.6,188.2c-1.4,4.7,1.3,7.2,3.4,10,.5.6.9,1.5,1.8,1.8.8.1,1.6,0,2.3-.3,1-.3,1.9-.7,2.8-1.2l-10.2-10.3ZM80.6,172c.6.1,4.2-8,4.8-18.2.5-9.1-1.8-12.1-1.9-19.9,0-5.6,1.1-13.6,6.8-23.5-6.7,6.4-9,12.2-9.9,16.3-2,9.4,2.6,13.7,2.4,28.1-.2,10.3-2.7,17-2.2,17.2ZM126.6,221.8c1.8,0,3.6-.6,5-1.8.8-.7,1.5-1.5,2-2.4-.9-.4-1.8-1.3-2.6-1.1-3,.8-5.8,1.6-8.9.1-1.5-.7-2.1.8-2.2,1.2-.2.8,1,1.8,1.6,2.2,1.5,1.1,3.2,1.7,5,1.7h0ZM61,183.9c-.4-2.1-1-4.1-1.9-6-2.6-5.9-5.9-7.5-8.1-11.9-1.2-2.4-2.5-6.3-1.7-12.2-3.5,6.9-3.1,11-1.9,13.5,1.4,3,3.8,3.8,7.8,8.3,2.2,2.5,4.2,5.3,5.8,8.2ZM177,86.7c.5-3.2.2-6.5-.7-9.6-1.5-5-4.3-7.3-7.3-11.2-7.4-9.7-8.1-19.2-8.8-19.1s-.5,10.7,5.8,19.7c2.6,3.7,5.1,5.4,7.7,10.6,1.5,3,2.6,6.2,3.2,9.6ZM174.7,144.6c3.3,15.2,2.4,31-2.5,45.8,3.5-4.9,5.9-10.5,7.1-16.4,2.9-14.3-2.7-25.8-4.7-29.4h0ZM220.8,103.6c7.6-8.6,8.5-14.8,8-18.8,0-.7-.5-3-1.4-7.4-1-4.8-1.8-8.8-2.3-11.5-.3,4-.3,8,.2,12,.1.9.4,3.2.7,6.5.1,2.1.2,3.9.2,4.4,0,4.7-2.8,10.6-5.4,14.7h0ZM40.2,110.5c.3,4.1,1.4,8,3.1,11.7,2.2,4.9,4,5.6,5.4,9.5,2.8,8-.9,15.2-.4,15.3s6.1-9,3.1-17.2c-1.2-3.1-2.7-3.7-6-9-2-3.3-3.7-6.8-5.1-10.4h0ZM116.4,29.5c-3.5,1.8-6.6,4.5-8.9,7.7-3.6,5.2-4.4,11-4,11.1s1.4-4,4.6-9.1c2.3-3.6,5.1-6.9,8.3-9.7h0ZM156.4,202.3c-1.6-4.2-2.6-8.5-2.8-13-.4-7.7,1.7-11.4-.3-16-1.1-2.5-3.6-5.9-10.3-8.5,3.1,1.5,5.7,4,7.3,7.1,3,5.9.1,10.6,1.7,19.1.7,4,2.2,7.8,4.4,11.3h0ZM19.2,157.1c-.4,0-.2,4.4,1.3,8.9,1.8,5.2,3.8,6.2,4.8,10.4.6,2.7.5,5.6-.3,8.3,2.9-4.5,3.1-7.8,2.7-10-.7-3.7-3-4.6-5.9-11.1-1.7-3.9-2.2-6.6-2.6-6.5ZM91.8,68.3c.9,3.1,1.5,6.3,1.9,9.5.4,3.8.3,7.7-.1,11.5-.4,3.8-1.2,7.6-2.3,11.3,6.7-9.7,6.9-22.5.5-32.3ZM10.3,121.8c.8,3.5,1.1,7.1,1,10.7-.2,6-1.7,9-.2,12.8,1.1,2.4,3,4.4,5.3,5.8-1.5-2.6-2.6-5.5-3-8.5-.6-4.4.4-6.6,0-11.1-.4-3.4-1.5-6.7-3.1-9.7ZM202.4,186.1c.3,0,0-4.3,1.3-9.3,1.5-5.7,4.3-8.4,5.8-11.2,2.4-4.2,3.7-11.4-1.5-24.3,2.4,11.1.8,18.3-1.4,22.9-1.5,3.3-4.4,7.7-4.9,14.7-.2,3.7.3,7.2.6,7.2ZM178.3,128.9c6.7-8.2,6.7-20,0-28.1,3.7,9,3.8,19.1,0,28.1ZM83.3,81c-8.1-3.5-13.3-11.5-13.3-20.3-.3,2.6-.3,5.2,0,7.8.2,1.5.5,2.9.9,4.3,2,5.7,10.4,7.8,12.4,8.2ZM93.4,60.6c-4.8-9-7.7-18.9-8.7-29.1-.7,4.2-.6,8.5.3,12.7,1.3,6.1,4.2,11.7,8.4,16.4ZM218.4,107.6c3.2,12.4-7.8,19.8-10.9,29.9,2.5-3.1,4-7.1,6.9-9.4,7.3-5.9,6.4-12.9,4-20.5ZM75.1,175.9c1,2.4,1.6,4.9,1.9,7.5.3,2.8,0,4.3,0,5.6.2,2.8,2.4,6.8,11.7,11.3-3-2-5.4-4.7-6.9-7.9-1.1-2.5-1-3.9-2-7.1-1.1-3.4-2.7-6.5-4.8-9.4ZM69.2,147.2c-.6,3.3-.2,6.6,1,9.7.7,1.6,1.3,2.2,2.3,4.1,1.4,2.7,2.3,5.7,2.8,8.7.7-2.3.8-4.7.2-7-.9-2.9-2.6-3.8-4.2-6.7-1.4-2.7-2.1-5.7-2.1-8.8ZM25.6,88.7c2.7,1.8,5,3.9,7,6.5-.7-3-2.3-5.7-4.6-7.8-5.8-5.2-12.9-2.5-18-7.4-1.6-1.6-3.6-4.4-4.1-9.7-1.7,5.3-.9,8.1.1,9.7,3.1,5,10.9,2.9,19.6,8.7ZM72.3,30.7c-1.4-1.3-2.7-2.7-3.7-4.3-1-1.6-1.7-2.7-1.9-4.2-.1-1.9.5-3.7,1.6-5.2-.3.3-3.4,3-2.9,6.5.3,1.6,1.2,3.1,2.4,4.2,1.2,1.3,2.8,2.3,4.5,3h0ZM39.1,68.5c-.2,3.6-.7,7.2-1.3,10.7-.8,4.4-1.4,6.2-1.8,8.4-.6,3.8-.6,9.4,2.5,16.9-.8-5.6-.7-11.2.4-16.8.9-3.4,1.4-6.8,1.4-10.3,0-3-.5-6-1.3-8.9ZM231.8,181.4c-.9-2.8-1.3-5.7-1.3-8.6,0-4.2,1-8.3,2.8-12.1-2.2,2.4-3.6,5.5-4.1,8.7-.6,4.2.3,8.5,2.6,12ZM123.9,176.4c-1.8,6.3-5.3,11.9-10.1,16.3,3.7-.9,6.8-3.3,8.7-6.6,1.6-3,2.1-6.4,1.4-9.7h0ZM235.6,155.6c.3.2,3.6-2.4,4.9-6.4.9-2.7.3-4.6,0-8.2-.4-3.8-.3-7.7,0-11.6-1,3.4-1.6,6.9-1.7,10.5-.1,4.2.5,6.5-.7,10.2-1.1,3.3-2.8,5.2-2.6,5.4h0ZM61.3,104.5c-.5,0,.2,4.3-2.7,8.2-1.8,2.4-3.5,2.8-4.4,5.3-.6,1.5-.7,3.2-.3,4.8.8-1.7,1.8-3.4,2.9-4.9,2.1-2.8,3.3-3.2,4.3-5.2,1.9-3.8.8-8.1.3-8.1ZM110.5,165.1c2.5-1,4.6-3,5.9-5.4,1.9-4.3,1.2-9.4-1.8-13,2.4,6.4.8,13.6-4.1,18.4h0ZM102.1,186.7c-.4.2,2.8,4.2,2.4,9.9-.2,2.5-1,4.9-2.2,7,.8-.5,4.1-2.9,4.7-6.9.8-5.7-4.4-10.3-4.9-10ZM49.1,194.4c.4-1.6.4-3.4,0-5-.7-2.8-2.2-4-4.1-7.3-1.1-1.9-1.9-3.9-2.6-6-.3,2.9.2,5.7,1.4,8.3.8,1.6,1.6,2.5,3.1,5.3.8,1.5,1.6,3.1,2.2,4.7ZM98.7,176.8c-1.4,4,1,8.4,1.2,8.3s-1.1-2.7-.3-6c.7-2.7,2.3-3.8,5.2-7.2,1.7-2.1,3.3-4.4,4.6-6.7-1.2,1.3-3,3.4-5.5,5.8-3.3,3.2-4.5,3.9-5.2,5.8ZM91.2,15.4c-3.6,3.4-5.9,7.9-6.5,12.8,1.5-3.2,3.4-6.2,5.5-9.1,1.7-2.1,3.5-4.2,5.4-6.1,2.1-2.2,5.1-5.2,8.8-8.7-3.2,1.8-6.2,3.9-8.8,6.4-1.6,1.4-3,3-4.3,4.7Z"/>
    </g>
  </g>
</svg>