<?xml version="1.0" encoding="utf-8"?>
<!-- Generator: Adobe Illustrator 26.0.0, SVG Export Plug-In . SVG Version: 6.00 Build 0)  -->
<svg version="1.1" id="Capa_1" xmlns="http://www.w3.org/2000/svg" xmlns:xlink="http://www.w3.org/1999/xlink" x="0px" y="0px"
	 viewBox="0 0 5727.6 901" style="enable-background:new 0 0 5727.6 901;" xml:space="preserve">
<style type="text/css">
	.st0{fill:#FAFBFF;}
	.st1{fill:#EEC53F;}
</style>
<g id="Capa_2_00000007393221438453497960000016855698831767332009_">
	<g id="Capa_1-2">
		<g id="Capa_2-2">
			<g id="Capa_3">
				<path class="st0" d="M5091.9,712.1c2.1-8.2,6-15.7,4.5-24.6c-1.9,0.8-3.6,2.1-4.8,3.8c-3.6,6-7.4,11.9-10.3,18.2
					c-5.3,11.4-14.1,18.9-25.4,23.9c-5.7,2.5-11.2,5.4-16.9,8.1c-29,14-58.1,27.8-90.2,33.9c-26.1,5.1-52.6,7.1-79.2,5.8
					c-5.5-0.3-10-1.5-12.6-7.1c-2.8-6-5.9-11.8-8.8-17.7c-1-2-1.8-4.1-2.9-6.4c-9.4,8.2-4.6,16.8-2.4,25.8
					c-6.5-3-13.1-5.7-18.1-10.2c-5.6-5.1-9.8-11.7-14.7-17.6c-1.2-1.4-3-2.2-4.5-3.3c-1.1,1.5-2.2,3.1-3.1,4.8
					c-0.3,1.1-0.4,2.2-0.3,3.3c0.5,11.6,7.8,19,16,25.7c9.5,7.7,20.7,11.8,32.6,14.4c-46.8,5.3-93.4,5.5-140.4,2
					c8.5-5.5,17.9-9.5,23.9-19.1c-1-0.2-2.1-0.2-3.1-0.2c-2.7,0.6-5.4,1.2-8,2.1c-21.6,7.3-44.2,11.2-66.9,11.5
					c-16.1,0.3-31-4.7-46-9.7c-30.2-10-55.7-26.2-72.8-53.7c-4.5-7.3-8-15.2-12.3-22.7c-0.9-1.6-3.2-2.4-4.9-3.6
					c-0.5,2-1.9,4.2-1.4,6c1.3,5.1,3.1,10.1,5.4,14.8c2,4.2,4.9,7.9,7.4,11.8c-5.2-3.4-10-7.2-14.4-11.6
					c-12.1-12-24.1-24.2-36.3-36.2c-2.7-2.7-5.6-5.2-8.8-7.5c-1.1-0.8-3.4-1.1-4.4-0.5s-1.2,3.1-0.6,4.3c3.3,6.9,6.6,13.8,10.5,20.4
					c2,3.5,5.2,6.4,8.1,9.9c-30.4-0.2-39.6,1.5-43.2,8.5c10.4,0,20.6-0.5,30.7,0.1c13,0.7,25.4,5.5,35.4,13.7
					c16.3,13.4,33.8,25.3,52.2,35.5c1.5,0.8,2.8,1.8,4.2,2.7c-1.1,0.6-2.4,0.8-3.6,0.4c-36.2-10-72.4-19.9-108.5-30.2
					c-48.1-13.8-96-28.2-144-41.9c-37.6-10.8-76.2-17.6-115.2-20.5c-37-2.7-74.3-2.7-111.2,2.8c-11.9,1.8-23.7,2.9-34.3-5.1
					c-3.6-2.6-7.2-5-11-7.3c-2.1-1.1-4.3-2.1-6.5-3l-1,1.2l6.5,11.3c-4.5-1.4-8.4-2-11.7-3.8c-11.1-6.1-21.8-12.7-32.8-18.9
					c-2.1-1.2-4.7-1.6-7-2.3l-1.6,2l11.9,17.4c-4.5,1-8.8,1.5-12.9,2.8c-3.9,1.2-7.6,3.3-11.4,4.9c0.1,0.6,0.3,1.2,0.5,1.7
					c17.8-0.4,36.3-5,52.1,8.3c-0.8,0.3-1.6,0.6-2.4,0.8c-54,13.4-108.1,26.5-162,40.2c-52.2,13.1-105.7,20.2-159.5,21.1
					c-1.9,0-3.8-0.2-5.8-0.3c0.1-0.7,0.1-1,0.1-1c1.4-0.8,2.8-1.7,4.2-2.5c10.3-5.9,17.7-14.1,20.5-26c1.9-8.1-1.9-17.4-8.9-20.8
					c-0.1,2-0.6,3.8-0.3,5.4c2,11.8-4.1,19.3-13.5,24.6c-21.9,12.5-45,18.4-70.5,14c-23.1-4.1-45.8-9.3-67.7-17.6
					c-11.8-4.5-24-8.2-33.2-17.7c-17-17.6-28.3-38.6-37-61.2c-15.8-41-20.5-84.2-21.5-127.5c-1.4-60.3,0.6-120.7,0.4-181
					c-0.3-25.6,4.3-51.1,13.4-75c3.7-9.6,7.6-20.7,14.9-27.1c28-24.3,60.3-37.2,98.3-28.5c2.6,0.6,5.5,0.1,8.3,0.1l0.5-1.7
					c-1.8-1.3-3.4-3-5.4-3.8c-20.1-8.1-40.6-10.7-62.3-6.2c-23.2,4.8-46.7,9.1-70.7,8c-21.2-0.9-42.4-1.7-63.6-3.2
					c-14.7-1.1-29.4-3.3-44-5.2s-29.2-5.3-44-5.9c-16.6-0.7-33.3,0-49.8,2.1c-21.5,2.8-42.3,8.8-61,20.7
					c-24,15.3-36.3,37.1-36.9,65.5c-0.4,22.8,8,42.8,21.3,60.5c6.2,7.9,13.7,14.7,22.3,19.9c13.6,8.3,28.9,8.3,44.2,4.7
					c6.2-1.5,12.2-3.3,18.3-8.5c-5.6-1.1-9.9-1.6-14-2.8c-19.5-5.4-37-13.8-45.7-33.5c-4.8-10.7-6.7-22.5-5.5-34.1
					c1.5-14.8,7.1-27.3,17.9-37.8c11.9-11.5,26.4-17.4,42-20.2c11.8-2.1,24-2,36-2.3c8.2-0.3,16.5-0.1,24.7,0.6
					c14.4,1.4,27.2,7.6,39.1,15.3c9.2,6,18.4,12.8,22.1,23.7c3.2,9.6,5.8,19.8,6.7,29.8c1.8,22.1,2.8,44.3,3.3,66.4
					c1,49.3,1.9,98.7,2.1,148.1c0.2,43.7-0.6,87.3-1,131c-0.1,8.8,0.7,18-1.5,26.3c-6.2,23.6-18,44.1-37.5,59.4
					c-14.4,11.2-31.4,16.2-49,19.6c-1.4,0.4-2.7,1-4,1.6c1.8,1,2.6,1.9,3.5,1.9c15.6,0,31.2,0.4,46.8-0.2
					c21.2-0.8,42.4-1.9,63.5,1.1c15.9,2.3,31.7,4.8,47.6,6.8c13.2,1.7,26.4,3,39.7,4.4c15.8,1.7,31.6,3.3,47.4,4.9
					c12.4,1.2,24.7,2.7,37.1,3.5c15.7,0.9,31.5,1.6,47.2,1.5c13.3-0.1,26.6-2.1,40-2.1c28.6,0.1,57.2,0.3,85.5-3.7
					c23.5-3.3,46.9-7.4,70.3-11.1c16.2-2.6,31.7-9.7,48.6-7.6c10.9,1.3,21.8,2.3,32.6,4.2c4.5,0.8,8.7,2.7,12.2,5.6
					c11,9.4,21.4,19.5,32.1,29.2c2.1,1.7,4.2,3.3,6.5,4.8l1.1-1.3c-4.1-11-12.5-19.2-19.9-28.4c28.6,11.2,57.5,15.8,87.6,8.4
					c-10.6-6.7-23.3-4.5-34.7-8.3c4.7-3.1,11.8-3.1,13-11.4c-1.7-0.1-3.3-0.1-5,0c-11.2,1.6-22.4,3.3-33.6,5c-1.4,0.3-2.8,0.3-4.2,0
					c-17.6-6.6-35.2-13.3-53.1-20.1c1.2-0.5,2.4-1,3.6-1.4c14.6-3.6,29.1-7.7,43.8-10.7c34-6.9,68-13.9,102.2-19.7
					c16.3-2.8,33.1-3.4,49.7-4.1c17.2-0.8,34.5-1.4,51.6-0.5c19.9,1.1,39.6,3.8,59.4,6.2c9.1,1.1,18.2,3.2,27.3,4.8
					c-5.6,2-11.3,3.5-17.1,4.5c-14.5,2.8-28.9,6.2-43.5,8.3c-9.4,1.3-19,0.8-28.5,1.2c-2.7,0.3-5.4,0.8-8,1.4
					c-0.1,0.8-0.2,1.7-0.3,2.5l21.5,7l-42.1,16.2c0.2,0.8,0.4,1.5,0.5,2.2c3.7-0.3,7.4-0.2,11.1-0.9c14.1-2.4,28.7-4.2,40.6-12.7
					c8.3-6,17.6-5.8,27.1-8.4c-17.6,26.6-19.2,29.9-16.7,36.5c6.5-2,9.6-7.7,13.4-12.5c16.2-20.7,37.6-31.5,63.2-35
					c6.1-0.8,12.6-2.5,18.3-1.1c19.4,4.7,38.5,10.4,57.7,15.9c60.9,17.3,121.9,34.7,182.8,52.1c1.4,0.4,2.8,0.8,5.3,1.6
					c-14.2,0.9-27,1.5-39.7,2.6c-8.9,0.7-17.8,2.4-26.7,2.9c-20.4,1.2-39.6-3.9-58.4-11.4c-3.1-1.2-6.4-1.7-9.7-2.5l-0.8,2
					c10.5,10.9,23,18.4,38.5,20c-10.8,6.5-21.2,12.6-31.3,19.1c-2.6,1.7-4.5,4.7-6.6,7.1l1,2.2c3.8-0.3,7.8,0,11.4-0.9
					c23.2-6.1,46.3-12.6,69.5-18.7c5.3-1.4,10.9-1.5,17.3-2.4c-5.4,8.2-11.9,14-12.4,24.9c3.4-2.2,5.6-3.5,7.6-5.1
					c8.1-6.9,16-14,24.1-20.8c1.3-1,2.9-1.5,4.5-1.6c18.8-1.1,37.6-2.2,56.4-3.1c24.1-1.2,47.7,4.7,71.5,6.5
					c19,1.5,37.9,3.5,56.9,4.5c17.6,0.9,35.2,1,52.8,0.9c13.9,0,27.9-0.1,41.7-1.2c26.4-2.1,52.9-4.2,79.2-7.9
					c22.8-3.2,45.4-8.2,68-12.8c8.9-1.8,17.6-4.6,27.4-7.3c-7.2,11.1-13,21.6-22.6,29.5c-3.9,3.2-6.7,7.7-10.1,11.6l1.3,1.4
					c11.6-3.5,19.5-13.2,30.6-19.5c-1.1,4.5-2,8.1-2.8,11.8l1.7,1c5.7-7.7,11.6-15.3,17-23.2c9.2-13.4,18.7-25.8,34.6-32.7
					c30.7-13.4,60-29.4,82.4-55.2c7.7-9,14.4-18.8,21.2-28.6c1.9-2.7,2-6.5,3-9.8l-2.1-1.3C5123.7,686.6,5110.1,701.8,5091.9,712.1z
					"/>
				<path class="st0" d="M3113,441c-10.4,1.8-15.6,2.9-20.6,6.8c-5.2,4-8.5,10.1-9.2,16.6c12-14.5,16.3-17.2,26.1-15.7
					c0,19.7,0.2,39.4-0.2,59.1c-0.1,3.9-2.9,7.7-4.3,11.2c14.3,0,30.7,0.8,47-0.2c14.1-0.9,26.1-7.2,32.9-20.6
					c7.7-15.3,7.4-39.8-23.9-56.6l-1.3-0.3c-7.6-1.9-15.5-2.7-23.4-2.3C3128.4,439,3120.7,439.7,3113,441z M3161.9,493.4
					c-2.3,15.5-12.1,21.8-28.4,19.7v-65.7c15.6-2.6,25.8,3.5,28.3,18.6C3163.2,475,3163.2,484.3,3161.9,493.4L3161.9,493.4z"/>
				<path class="st0" d="M3730.2,415.5c0,34.7,0,69.3,0,104c0,1.3-0.2,2.7-0.4,4.5c-2.9-2.8-5.2-5-7.5-7.4
					c-42.3-43.6-84.4-87.4-127-130.7c-15-15.2-32.5-27.4-52.9-34.8c-21.9-7.9-43.1-7.7-63.2,5.3c-1.1,0.7-1.6,2.3-2.4,3.4
					c1.2,0.2,2.6,0.9,3.7,0.5c16.6-4.7,31.9-1,46.7,6.6c19.2,9.9,35,24.1,49.7,39.6c2,2.2,3.2,5.1,3.3,8
					c0.2,56.7,0.2,113.4,0.1,170.1c0,14.5-6.9,21.6-21.3,22.3c-1.4,0.2-2.8,0.7-4.1,1.3c0.1,0.4,0.2,0.9,0.4,1.3h115.2l0.2-1.6
					c-1.4-0.4-2.9-0.8-4.4-0.9c-13.9-0.5-20.9-7.6-20.9-21.4V479.1l1.4-0.8c1,1.3,2,2.6,3.1,3.8c36.5,37.8,73,75.5,109.5,113.2
					c13.7,14,27.3,28.3,42.1,41.1c17.7,15.2,37.6,26.9,61.9,28.2c14.7,0.8,29.3-2.7,42-10.3c1-0.6,1.4-2.1,2-3.2
					c-1.1-0.4-2.2-0.7-3.4-0.9c-0.9,0.1-1.8,0.3-2.6,0.6c-14.9,2.6-29.3,1.3-42.9-5.4c-11.9-5.9-23.2-12.7-32.6-22.2
					c-9.2-9.3-18.5-18.3-27.4-27.9c-2.1-2.4-3.3-5.4-3.4-8.6c-0.2-57.1-0.2-114.1-0.1-171.2c0-14.6,6.6-21.6,21.1-22.3
					c1.4-0.1,2.7-0.9,4.1-1.4c-0.1-0.5-0.2-0.9-0.4-1.4h-114.9c-0.1,0.5-0.2,1-0.3,1.5c1.3,0.6,2.7,1,4.1,1.2
					C3722.9,394,3730.2,401.4,3730.2,415.5z"/>
				<path class="st0" d="M5132.4,491.6c-4.6-1.1-9.4-1.6-14.6-2.5c0.4-0.4,0.8-0.8,1.3-1.2c30.8-21,30.5-61.2-0.7-81.5
					c-17.8-11.6-37.9-15.8-58.6-16.1c-34.1-0.6-68.3-0.3-102.4-0.3c-1.7,0-3.4,0.3-5,0.4l-0.3,1.6c1,0.5,2.2,1,3.3,1.2
					c15,1.6,21.1,8.2,21.1,23.1v154.7c0,1.8-0.1,3.5-0.3,6.4c-4-3.6-7.4-6.3-10.4-9.4c-17.8-18.4-25.6-41-27.2-66.1
					c-0.2-3.9-0.6-7.7-0.9-11.6l-1.7-0.2c-0.5,0.9-1.4,1.8-1.5,2.8c-2,22.2-0.8,44,8.2,64.7c12.5,28.8,36.1,43.8,65.3,51.5
					c25.3,6.6,51.1,7.6,77,5.3c22.1-2,43.3-7.2,62.1-19.9c21.3-14.5,30.8-34.2,27.3-59.9C5171.8,514.8,5154.1,496.8,5132.4,491.6z
					 M5073.3,591.4c-9.8,4.9-20.4,6.7-31.6,6.9V406.9c12.4-0.6,23.3,5.8,27.4,17.2c6.5,16.9,6.8,35.6,0.9,52.7
					c-2.8,8.4-9.1,13-18.1,14l-0.2,1.5c1.5,0.5,3,0.9,4.5,1.4c8,2.5,16.4,4,23.8,7.7c13.3,6.6,18.4,18.9,20.5,33.1
					C5104.1,558.8,5093.8,581.1,5073.3,591.4z"/>
				<path class="st0" d="M3859.4,587.8c-0.8,11-8.5,18.7-19.5,19.3c-1.6,0.2-3.1,0.4-4.6,0.8l0.2,2.1c1.6,0.1,3.1,0.3,4.6,0.3
					c40.8,0,81.5,0.2,122.3-0.1c18.8,0,37.3-3.6,54.7-10.6c27.7-11.5,47.6-30.5,57.3-59.3c6.7-19.7,7.6-39.9,4.7-60.3
					c-4.3-30.1-18.7-54-44.8-70.4c-20.9-13.2-44.2-18.8-68.5-19.2c-42-0.7-84.1-0.3-126.1-0.3c-1.4,0.1-2.7,0.2-4.1,0.4
					c-0.1,0.5-0.2,0.9-0.3,1.4c1.2,0.5,2.4,1.4,3.6,1.5c14.6,1.3,20.5,7.7,20.5,22.2v167.4C3859.6,584.5,3859.6,586.2,3859.4,587.8z
					 M3924.6,406.1c23.9-0.9,47.5-2.6,65,18.3c10.9,13,16.5,28.5,19.1,44.9c4,25.4,3.8,50.8-3.2,75.7c-4.2,15.1-11.3,28.6-23.9,38.6
					c-8,6.3-17.1,10.1-27.2,10.4c-9.8,0.3-19.7,0.1-29.8,0.1L3924.6,406.1z"/>
				<path class="st0" d="M2192.2,515.5c4.1,4.7,7.8,7.8,10.1,11.7c4.4,7.6,8.1,15.6,11.9,23.5c11.8,24.8,22.6,50.3,39.6,72.1
					c31.1,40,70.9,61.2,122.9,54c14.6-2,28.6-6.3,41.2-14.3c1.6-1,2.8-2.6,5.1-4.8c-8.2-1.1-14.7-1.8-21.2-2.8
					c-24.9-4.1-47.5-13.3-67-29.6c-18.7-15.6-32.7-35.1-46.2-55c-12.1-18-23-37.2-45.4-45.9c4.9-0.6,8.9-0.9,12.9-1.7
					c20.7-4,37.4-21.6,39.6-41.9c2.8-25.1-6.5-42.7-28.1-52.4c-14.1-6.4-29.1-8.9-44.4-9c-37.4-0.3-74.9-0.1-112.4-0.1
					c-1.5,0.1-3,0.2-4.4,0.4c0,0.5-0.1,1.1-0.2,1.6c1.3,0.4,2.6,0.7,4,1c11.3,1.2,17,7.5,17,18.9c0,50.1,0,100.2,0,150.3
					c0,10.7-6.4,17.5-17,18.5c-1.4,0.3-2.9,0.7-4.2,1.3c0.1,0.4,0.2,0.8,0.3,1.2h98.9c-0.6-1.6-1.5-2.3-2.5-2.5
					c-13.5-2-18.3-7.5-18.3-21.2V434c27.9-2.5,46.2,7.7,50.6,28c2.4,11.1,2.1,22.4-3.2,32.7C2223.9,510,2210.4,516.3,2192.2,515.5z"
					/>
				<path class="st0" d="M2515.2,393.1c11.4-3.1,22.5-1.7,33.3,2.7c20.9,8.5,37,23.5,52.3,39.4c1.1,1.1,1.3,3.3,1.3,5
					c0.1,50.7,0.1,101.3,0,152c0,11.1-6.1,17.2-17.2,17.8c-1.7,0.2-3.4,0.6-5,1.1l0.3,1.2h101.1c-0.7-1.5-1.6-2.1-2.6-2.2
					c-15.2-1.8-19.4-6.4-19.4-21.4v-85.9c0-1.7,0.2-3.5,0.2-5.2l1.7-1.2c0.9,1.8,2,3.4,3.3,5c37.7,39.1,75.5,78.2,113.2,117.2
					c14,14.5,29.2,27.3,47.7,35.7c20.7,9.3,41.2,9,61.3-1.7c1.4-0.9,2.7-2,3.8-3.2l-0.8-1.3c-1.6,0.2-3.1,0.3-4.7,0.4
					c-9.4-0.3-19.3,1-28.2-1.3c-20.6-5.2-36-19-50.2-34.1h61.6l0.2-1.7c-0.7-0.6-1.6-1-2.4-1.3c-11.3-2.2-14.3-7.8-9.9-18.5
					c2.8-6.8,6-13.4,8.6-20.2c1.3-3.3,3.1-4.3,6.5-4.3c14.1,0.2,28.3,0.1,42.4,0.1c12,0,12.1,0,16.6,11.2
					c11.2,28.4,26.8,53.6,51,73.1c27,21.8,71.2,29.4,103.4,11.3c1.5-0.9,3-2,4.4-3.1l-0.6-1.4c-1.5,0-3.1,0.1-4.6,0.2
					c-18.4,3.7-34-2.2-47.5-14.4c-15.9-14.5-26.9-32.5-35.7-51.8c-15.8-34.8-31-70-46.3-105c-8.1-18.6-16.2-37.3-28.6-53.7
					c-24.8-32.8-59.7-40.2-95.1-19.9c-1.2,0.7-2,2-3.8,3.8c2,0.1,2.6,0.3,3.1,0.1c15.9-5.3,27.7,1.1,37.8,13
					c9.5,11.3,15.1,24.6,19.8,38.3c0.4,1.9,0.2,3.9-0.6,5.6c-18,39.7-36.1,79.4-54.2,119c-4.4,9.6-11.8,15.7-22.9,16.6
					c-1.2,0.1-2.2,1.9-3.3,2.9c-4.2-4.4-8.6-8.6-12.5-13.2c-1.7-2-2.7-4.5-2.9-7.1c-0.2-50.8-0.2-101.7-0.1-152.5
					c0-10.9,6.3-17.3,17.2-18c1.7-0.2,3.4-0.6,5-1.1l-0.3-1.2h-101c0.6,1.2,1.8,2.1,3.2,2.2c13.8,1.2,19,6.8,19,20.9v93.3l-1.7,1
					c-1.2-1.8-2.4-3.5-3.8-5.2c-35.1-36.3-70.2-72.6-105.3-108.8c-7.5-7.8-15.6-14.9-24.3-21.5c-17.9-13.5-37.5-23.2-60.9-21.1
					c-10.1,0.8-19.7,4.9-27.2,11.6C2512.3,393.3,2513.8,393.5,2515.2,393.1z M2897.5,497c7.6,18.9,14.9,36.9,22.5,55.7h-46.8
					C2881.3,534.1,2889.3,515.9,2897.5,497z"/>
				<path class="st0" d="M4768.8,562.5c1.3-3.4,3.1-4.3,6.5-4.2c18.5,0.1,37.1,0.3,55.6-0.1c5.4-0.1,8,1.4,10,6.5
					c7.5,20.1,16.4,39.6,29.4,56.9c21.5,28.7,47.8,49.8,84.6,55.3c23.1,3.5,44.9,0.3,65.4-11.1c1.2-0.7,1.8-2.2,2.7-3.4
					c-1.2-0.3-2.5-1-3.6-0.7c-21.8,4.9-40.2-2-56.1-16.6c-18.2-16.7-30.6-37.5-40.6-59.6c-20.3-45.1-39.8-90.5-59.7-135.8
					c-8.3-18.9-18.1-36.9-32.3-52.1c-30.3-32.5-65.7-33.9-101.6-13.4c-1,0.5-1.3,2.1-2,3.2c1.1,0.1,2.4,0.7,3.3,0.4
					c17.6-5.1,30.6,2,41.7,15s17.4,28.3,22.9,44.1c0.5,1.7,0.3,3.5-0.4,5.1c-20.7,45.5-41.4,91-62.2,136.5
					c-5.1,11.1-13.9,17.7-26.5,18.6c-1.2,0.1-2.2,1-3.4,1.6c0.1,0.4,0.3,0.8,0.5,1.3h69.7l0.6-1.3c-0.8-0.6-1.7-1.1-2.6-1.5
					c-12.8-2.6-16.5-9.3-11.5-21.4C4762.2,578,4765.8,570.4,4768.8,562.5z M4805.7,478.3l25.7,63.7h-53.5
					C4787.2,520.8,4796.3,499.9,4805.7,478.3L4805.7,478.3z"/>
				<path class="st0" d="M5504.9,645.7c-12,2.3-24,5.6-36.1,6.2c-25,1.3-49.8-2.5-74.1-8.5c-36.3-8.8-72.2-18.8-108.3-28.4
					c-8-2.1-12.4-7.4-12.9-15.7c-0.2-2.7-0.5-5.5-0.5-8.2c0-32.3,0-64.6,0-96.9c0-26-0.1-52.1,0-78.2c0-13.9,7-21.4,20.8-22.8
					c1.2-0.3,2.5-0.8,3.6-1.4l-0.4-1.4h-112.7c-0.1,0.4-0.3,0.9-0.4,1.3c1,0.6,2,1.1,3.1,1.5c2.1,0.4,4.4,0.2,6.5,0.8
					c10,2.8,14.8,10,14.8,22.2v154.2c0,5.7,0.2,11.4-0.1,17c-0.7,11.8-7.9,18.9-19.6,19.7c-1.5,0.2-3,0.5-4.5,0.8l0.3,2
					c1.6,0.2,3.1,0.4,4.7,0.4c17.3,0.8,34.6,3,50.6,9.4c18.3,7.4,35.9,16.4,53.6,25.2c30.6,15.3,60.9,31.3,94,41
					c21,6.2,41.9,9.4,63.9,7.3c31.1-3,51.2-20.5,65.6-46.5c1.2-2.1,1.2-4.8,1.7-7.2c-2.2,0.9-4.4,1.8-6.5,2.7
					C5509.4,643.5,5507.3,645.2,5504.9,645.7z"/>
				<path class="st0" d="M1938.7,490.3c0.7,1.3,2.2,2.1,3.4,3.1l1.1-0.7c-0.2-1.6-0.4-3.2-0.5-4.8c-0.6-7.5-1.9-15-1.6-22.4
					c0.8-15.9,11.5-32.3,28.9-35.6c18.7-3.6,37.4,5.2,48,23.5c8.8,15.2,12.6,31.9,13.8,49.3c1.7,24-0.5,47.3-12.4,68.8
					c-16.1,29.1-50,40.2-77.6,25.2c-17.7-9.6-26.9-26-32.8-44.4c-7.1-22.2-7.8-45.1-5.2-68c2.6-22.3,7.5-44.1,22.1-62.3
					c0.6-0.8,0.9-2.9,0.5-3.2c-1.1-0.7-2.4-1-3.7-0.8c-55.8,10.2-92.2,61.6-78.8,120.9c6.8,30.1,26.5,49.9,53.2,63.5
					c22.5,11.4,46.7,14.9,71.5,14.8c24.2-0.1,47.7-4,69.9-14.7c60.4-29.2,66.9-95.8,43.1-135.7c-23.3-39.2-59.8-56.2-105.1-51.6
					C1938.1,418.9,1920.4,455.5,1938.7,490.3z"/>
				<path class="st0" d="M2446.1,603c-25.8,0.2-42.2-14.3-53.2-36.2c-7.8-15.7-11.2-32.5-11.8-49.9c-1.1-33.6,2-66.3,22.7-94.8
					c0.7-1.1,0.9-2.5,0.6-3.7c-0.1-0.5-2.2-0.8-3.2-0.6c-55.2,10.1-92.2,60.4-79.4,120.2c6.5,30.4,26.2,50.5,53.1,64.2
					c20.7,10.5,43,14.3,66,14.8c26.1,0.6,51.5-2.8,75.4-14.4c54-26.2,65.7-81.2,48.5-125.8c-16.5-42.8-68.1-67.6-109.4-62.2
					c-37.4,4.9-57.1,39.1-39,75c0.8,1.5,2.2,2.7,4.3,5c-0.6-11.1-1.8-20.2-1.5-29.2c0.6-18.9,14.8-34.3,32.9-36
					c20.1-1.9,34.1,7.9,44,24.3c9,14.9,12.5,31.5,13.8,48.7c1.7,21.7,0,42.9-9.3,62.9C2490,588.4,2472.6,602.7,2446.1,603z"/>
				<path class="st0" d="M4315.3,515.4c-2.1,3.4-4.3,6.8-6.2,10.3c-22.3,41.6-6.8,89.1,36.4,107.6c38.6,16.5,76.8,13.3,112.8-8.2
					c23-13.8,36.9-34.8,39.4-61.7c2.7-30-11.7-52.6-36.2-68.2c-21.8-13.9-44.7-26-67.1-38.9c-5.5-3.2-11.3-6.2-16.5-9.9
					c-9.5-6.8-12-14.3-8.6-24.3c2-6.2,6.5-11.3,12.5-14.1c19.4-8.9,39.1-9.3,58.4-0.2c11.8,5.5,19,15.3,20.4,28.7
					c0.2,1.2,0.5,2.4,0.9,3.6c3.2-1.9,9.3-39.2,8.7-51c-1-0.1-2-0.3-3.1-0.4c-17.4-0.9-34.8-2.4-52.2-2.5c-15.4-0.1-31.1-0.8-46,2.2
					c-47.5,9.6-57.3,55-44.9,85.5c5.5,13.6,15.4,23.7,27.5,31.4c18.5,11.6,37.5,22.3,56.1,33.7c6.8,4.2,13.7,8.7,19.4,14.3
					c23.1,22.7,16.1,56.1-14.3,67.2c-23.9,8.8-47.4,6.3-69.2-6.8c-23.5-14-35.4-34.8-34.9-62.4c0.2-10.9,3.6-20.8,8.3-30.5
					c0.7-1.4,0.3-3.4,0.5-5.1L4315.3,515.4z"/>
				<path class="st0" d="M5726.6,545.9c-3.6-22.2-16.5-39.1-35.4-50.8c-22-13.5-44.7-25.9-67.1-38.8c-5.5-3.2-11.3-6.2-16.5-9.9
					c-9.5-6.8-12-14.3-8.5-24.4c2.1-6.4,6.8-11.6,13-14.3c19.1-8.5,38.5-8.9,57.4-0.2c12,5.5,19.4,15.4,20.8,29
					c0.2,1.2,0.5,2.4,0.9,3.5c3.1-2,9.3-39.9,8.6-51.1c-1.4-0.1-2.8-0.3-4.2-0.3c-16.7-0.9-33.3-2.3-50-2.4
					c-15.7-0.1-31.9-1-47.1,2.1c-47.8,9.7-57.4,55.5-44.7,86c5.5,13.3,15.3,23.3,27.4,30.8c18.5,11.6,37.5,22.3,56.1,33.7
					c6.8,4.2,13.7,8.7,19.4,14.3c23.1,22.8,16,56.1-14.4,67.2c-23.9,8.8-47.4,6.3-69.2-6.8c-23.5-14-35.4-34.8-34.9-62.5
					c0.2-10.9,3.6-20.8,8.3-30.5c0.7-1.4,0.6-3.3,0.8-5l-2.4-0.4c-2,3.4-4.2,6.8-6.1,10.3c-19.2,35.9-10.4,76.5,22,99.8
					c15.1,10.8,32.5,15.8,50.9,17.2c33,2.5,63.4-4.6,88.5-26.9C5721,597.4,5731.1,573.9,5726.6,545.9z"/>
				<path class="st0" d="M4097.4,607.2c-1.1,0.1-2.1,1.1-3.2,1.7l0.5,1.2h184.1l11.8-72.3l-1.8-0.8c-1,1.3-1.9,2.7-2.7,4.1
					c-2.6,5.9-4.4,12.1-7.5,17.6c-10.2,18.1-24.6,31.7-45.9,34.1c-15.9,1.8-32.2,0.7-48.4,0.8c-0.3,0-0.5-0.4-0.8-0.6V510
					c10.7,0,21,0.3,31.2-0.1c22.8-0.9,36.4,15.3,36.6,32.7c0,1.1,1.1,2.2,1.8,3.2l1-0.5v-87l-1.6-0.4c-0.6,1.5-1,3.1-1.3,4.6
					c-1.4,16.4-11.7,28.7-28,30.5c-13,1.4-26.3,0.3-39.8,0.3v-86.5c1.1-0.2,2.2-0.4,3.4-0.5c14.5,0,29-0.2,43.5,0.2
					c5.1,0.1,10.2,1.2,15,3c15.2,6,21.9,18,22.6,33.9c0.2,2.1,0.6,4.1,1.1,6.1l1.9-0.4v-64.6c-29.2,8.3-58.9,4.9-88.3,5.3
					s-58.8,0.1-88.2,0.1l-0.4,1.9c1,0.6,2.1,1.1,3.2,1.4c15.1,1.7,21.1,8.2,21.1,23.2c0,55.8,0,111.6,0,167.4
					C4118.5,598.7,4112.1,605.7,4097.4,607.2z"/>
				<path class="st0" d="M4518.4,607.2c-1.2,0.1-2.2,1-3.4,1.6c0.1,0.4,0.3,0.8,0.5,1.2h184.3c3.9-24,7.9-48.1,11.8-72.2l-1.7-0.8
					c-1,1.2-1.9,2.6-2.7,4c-2.6,5.9-4.4,12.1-7.5,17.6c-10.2,18.1-24.5,31.5-45.8,34.3c-13.4,1.7-27.1,0.9-40.7,1.1
					c-2.9,0.1-5.7,0-8.6,0V510c10.8,0,21.2,0.3,31.7-0.1c21.9-0.8,35.9,14.9,36.2,32.5c0,1.1,1.1,2.2,1.6,3.4l1.2-0.5v-87l-1.6-0.4
					c-0.6,1.4-1,2.9-1.3,4.5c-1.6,18.4-14.8,31-33.4,31.4c-9.2,0.2-18.4,0-27.5,0.1h-6.8v-87.2c17.5,0,34.6-0.8,51.6,0.2
					c15,0.8,27.7,11.5,31.2,26.1c1,4,1,8.3,1.6,12.5c0.4,1.4,0.9,2.8,1.5,4.1l1.5-0.4v-64.6c-16.4,4.9-32.7,5.6-49,5.5
					c-40.4-0.1-80.8-0.1-121.2,0h-6.3l-0.4,1.8c1.2,0.5,2.3,1.3,3.6,1.5c14,1.3,20.7,8.4,20.7,22.5c0.1,56.3,0.1,112.7,0,169
					C4539.3,598.7,4532.4,605.9,4518.4,607.2z"/>
				<path class="st0" d="M5516.3,539.7c-1,2.3-1.6,4.9-2.5,7.3c-8.9,22.5-23.1,40.6-47.8,45.2c-17.1,3.2-35,1.9-52.7,2.6V510
					c6.1,0,11.8,0,17.5,0c7.5,0.1,15.1-0.4,22.5,0.5c15.2,1.9,26.3,14.7,27.6,30.5c0.3,1.6,0.7,3.2,1.3,4.7l1.5-0.5v-87l-1.6-0.3
					c-0.5,1.5-0.9,3.1-1.2,4.7c-1.4,15.9-11.3,28.3-27.1,30.1c-13.3,1.5-27,0.3-40.7,0.3v-86.6c16.2,0,32.2-0.4,48.1,0.1
					c19.6,0.6,33,12.7,36,32c0.4,2.7,0.1,5.5,0.5,8.2c0.1,1,1.2,1.9,1.8,2.8l1.2-0.6v-64.6c-20.9,6.5-42,5.5-63.1,5.5h-113.3l-0.5,2
					c1.2,0.6,2.5,1,3.8,1.2c13.2,1,20.4,8.3,20.5,21.6c0.1,56.9,0.1,113.8,0,170.7c0,13.1-7.5,20.6-20.6,21.6
					c-1.3,0.3-2.5,0.7-3.6,1.3c0.1,0.5,0.2,1,0.4,1.4h184.4l11.8-72.1l-1.5-0.8C5517.9,538,5516.8,538.7,5516.3,539.7z"/>
				<path class="st0" d="M1174.7,369c-0.1,46.5-0.1,93,0,139.5c0,20.5,0.1,41.1,0,61.7c-0.1,18.2-7.3,26.1-25.3,28.4
					c-1.4,0.2-2.7,1.3-4.1,1.9c12.6,2.8,24.7,4,36.7,5.7c29,4.3,54.7,17.4,80.4,30.5c28.8,14.5,57.2,29.9,86.9,42.4
					c34.6,14.6,70.1,26.7,109,24.9c43.2-2,72.1-23.9,91.1-61.1c0.6-1.2,0.2-3,0.3-4.5c-1.7,0.2-3.4,0.5-5,1
					c-6.9,2.9-13.5,7-20.7,8.9c-29.7,7.8-59.7,5.2-89.6,0.7c-55.7-8.5-109.7-23.7-163.4-40.1c-12.9-4-17.9-10-17.9-23.3
					c-0.1-73.6-0.1-147.3,0-221c0-12.5,8.3-21.6,20.7-23.8l9.8-1.8c-6.3-4.1-133-4.1-138.7-0.3c6,1.5,11.5,2.1,16.2,4.2
					C1172.2,347.8,1174.7,357.7,1174.7,369z"/>
				<path class="st0" d="M2429.9,703.5l0.3,0.4c7.1-1.8,13.3-2.8,19-5c22.8-8.9,45.4-18.4,68.3-27.2c34.8-13.5,71-22.8,108-27.7
					c28.6-3.7,57.3-4.2,86-2.9c40.4,1.8,78.4,12.5,114.5,30.7c18,9,35,19.2,49.6,33.3c1.7,1.7,2.9,4,4.3,6l-0.8,1.6
					c-2.6-0.9-5.5-1.5-7.9-2.8c-19.1-10.7-38.7-20.3-59.8-26.4c-0.8-0.2-1.7-0.5-3.1-1c7.8,12.8,18.3,23.4,21.3,38.1l-1.3,1
					c-5.7-6.9-11.4-13.8-17.1-20.6c-4.8-5.7-9.9-11.2-14.3-17.2c-6.3-8.6-15.9-10.7-25.2-13.1c-23-5.9-46.5-9.5-70.3-9.6h-27.8
					c5.6,5.3,12.6,8.1,20.6,9.4c11,1.7,20.9,6.4,29.9,13.1c2.3,1.7,4.7,3.2,6.4,5.7c-10.4,3.9-19.4-1.1-29.1-1.1
					c6.6,12.6,17.6,18.5,29.7,22.9c13.1,4.7,26.4,8.8,39.4,13.7c5.7,2.1,10.9,5.7,16.3,8.6c-0.2,0.6-0.5,1.3-0.7,1.9h-20.7l5.9,10.2
					c-0.4,0.5-0.8,0.9-1.2,1.4c-2.3-1.4-4.9-2.5-6.8-4.3c-10-8.9-22.5-14.6-35.7-16.2c-5.2-0.7-10.2-3.2-15.8-5.1
					c-1.6,10.8,4.9,21.9-0.1,32.5l-2.3,0.4c-2.2-7.2-4.7-14.4-6.7-21.7c-1.8-6.6-2.4-13.6-4.8-19.9c-1.7-4.6-5.6-8.3-8.5-12.5
					c-10.4-14.6-22.4-27.2-39.7-33.6c-0.5-0.1-1-0.3-1.6-0.3c3.3,14.8,10.7,28.9,5.4,44.3l-1.9,0.7c-1.4-3.2-3.1-6.3-4.1-9.7
					c-2.8-9.5-4.8-19.3-11.1-27.3c-2.4-3.2-5.1-6.1-8.1-8.9c-1.4-1.1-3.2-1.6-5-1.4c-29.5,4.2-58.4,11.8-86.2,22.5
					c-16.4,6.3-32.6,13.2-48.5,20.5c-17.4,8-39.5,17.8-58.9,21.9c-21,4.4-62.1,6.5-102.1,1.4c-19.7-2.5-47.4-11.4-47.5-11.3
					c-0.5,0.6-0.7,5.5,8,11.8c30.1,21.8,31.2,23.7,31.6,24c3.4,3.2,5.7,7.4,6.3,12.1c-9.3-9.5-50.3-34.5-50.4-34.5
					c-1-0.1-2.6,3.8-2.8,11.7c-0.2,8.9,1.9,16.7,0.9,17c-0.1,0-0.3,0-0.4-0.1c-4.9-4-5.1-21.5-5.1-21.5c-0.2-16.1,1-15.9-0.3-19.1
					c-2.6-6-7.6-9.7-18.9-14.6c-7-3-13.8-6-20.8-8.5s-27.6-1.7-40.7-0.1c-15.3,1.8-21.9,3.8-35.8,3.3c-15.8-0.5-26.4-7-33.3-9.1
					c-28.4-8.8-58.7-11.1-90.6-6.6c1.8,0.9,3.7,1.6,5.6,2.3c15.9,4,30.7,11.1,43.7,21c5.3,4,13.4,8.7,17.3,14.6
					c6.6,10,6.7,25.7,5.6,26c-1.2,0.4-3.7-6.8-12.2-15.3c-3.5-3.4-7.2-6.4-11.3-9c-4.2-3-8.9-5.1-13.9-6.2c3.5,5.2,7.1,13.2,11,22.9
					c3.1,7.7,5,15.8,4,25c-3.6-3.5-7.3-6.4-10-10c-8.7-11.4-16.9-23.1-25.5-34.5c-8.2-10.9-19.9-16.7-32.3-21.4
					c-2.2-0.8-4.5-1.4-6.6-2.3c-11.5-4.9-22.6-5.2-35.2-1.9c-26.9,6.9-54.1,13.4-81.6,16.4c-24.8,2.8-50.2,1.2-75.2,0.8
					c-23.3-0.4-45.5-6.4-66.9-15.2c-38.4-15.6-71.6-41.6-95.9-75.1c-20.4-27.7-34.5-58.3-41.6-92c-4.7-22.5-6.2-45.6-4.2-68.5
					c2.8-34.4,12.8-66.4,29.2-96.6c31.5-57.8,84.2-101.3,146.9-121.3c18.2-5.9,36.7-11.1,55.8-13c4.7-0.6,9.5-0.9,14.2-1
					c17.2,0.1,34.4,0.1,51.5,0.9c18,1,35.5,5.8,51.5,14c6.5,3.3,12.7,7.2,18.6,11.5c2,1.5,3.5,4.9,3.6,7.5
					c0.4,10.4,0.3,20.9,0.2,31.3c-0.2,15.8-0.2,31.5-1.2,47.2c-1,17.6-3.2,35.1-8.8,52c-0.3,0.8-1,1.4-2.1,3c-1-1.9-1.9-3.2-2.2-4.5
					c-1.9-8.5-3.3-17.1-5.5-25.5c-9.8-36.9-29-67.6-60.1-90.3c-10-7.5-22.2-11.5-34.7-11.4c-21.7-0.1-42.9,2.9-62.4,11.9
					c-11.6,5.4-22.3,13.3-32.3,21.5c-42.4,34.8-68.2,79.6-77,133.7c-2.4,15-4.7,30.4-4.2,45.6c1.6,55.9,18.8,106.1,58.4,147
					c25.9,26.8,57.3,43.1,94.6,47.6c25.9,3.1,50.6-1.9,74.5-11.5c11.7-4.7,23.3-9.6,34.5-15.1c13.1-6.4,27.4-10.2,42-11.2
					c29.6-2.2,59.5-2.1,87.9,7c23.1,7.4,44.9,18.7,67.5,27.5c8,3.1,16.7,4.3,25.2,6c4.1,0.8,8.3,0.6,12.5,1.2
					c17.1,2.5,30.6-5.6,43.7-15c2.9-2,6-3.6,9.2-4.7c-2.5,8.8-8.8,14.3-15.9,19.9c9.6,1.1,18.2,1.6,26.7,3.2
					c16.8,3.2,32.2,10.5,47.5,17.8c18.7,7.4,38.6,11.3,58.7,11.8c3.3,0.1,6.5,0,9.6-0.1s6.2-0.3,9.1-0.6
					c16.3-1.5,32.2-5.2,47.4-11.2c3.7-2.2,8.3-7.2,14.3-12.9c7.9-7.5,9.6-17.9,12.3-27.8c3-11,8.4-20,18.4-25.7
					c1.6-0.9,3.4-1.5,5.1-2.3l1.2,1.1l-12.9,22.4l1,1c18.3-20.7,39.8-35.5,68-37.5l0.8,1.3l-8.4,4.6l29.3,3.2l0.2,2.7
					c-4.2,1.2-8.3,2.8-12.5,3.5c-10.3,1.7-20.8,3.1-31.1,4.4c-9.8,1.3-17.5,6.6-24.7,12.7c-5.2,4.5-9.7,9.8-14.8,15
					c9.8,5,22,0.8,30.1,11c-6.5-0.4-12.1-1.3-17.6-1.1c-6.1,0.4-12.2,1.2-18.3,2.4c-2.3,0.5-4.3,1.7-5.9,3.4
					c-6.2,6.2-12.1,12.7-18.1,19.1L2429.9,703.5z"/>
				<path class="st0" d="M2429.6,704.1l0.7-0.2l-0.3-0.4L2429.6,704.1z"/>
				<path class="st0" d="M1307,540.2c-5.4,12.1-13.1,20.4-26.8,21.8c-0.2,0-0.2,0.8-0.5,1.7h59.8c-1.9-1.3-2.3-1.9-2.9-2
					c-11-2.7-13.8-7.9-9.6-18c2.5-6.1,5.5-12,7.8-18.2c1.5-4,3.7-5.5,8-5.4c13.7,0.4,27.4,0.7,41.1,0.1c7.4-0.3,11,1.8,13.7,9.1
					c8.8,24.3,21.3,46.7,40.5,64.7c25.9,24.3,56,34.2,91,25.8c7.4-1.8,14.3-5.7,21.5-8.6l-0.8-2.3c-0.8-0.3-1.7-0.4-2.6-0.3
					c-19.6,4.5-35.5-2.7-49.3-15.9c-14.7-14.1-24.8-31.5-33-49.9c-16.7-37.5-32.1-75.5-49.3-112.8c-7.2-15.6-15.9-31.1-26.8-44.3
					c-21.8-26.5-51.1-31.1-81.8-15.5c-2.4,1.2-4.7,2.7-7,4.1c1.5,1.4,2.5,1.8,3.3,1.6c13.4-4.2,24.9,0.3,32.7,10.6
					s13.3,22.5,19.7,34c2.7,4.8,2.1,9.4-0.3,14.5C1339,470.1,1322.8,505.1,1307,540.2z M1366.9,453.1c7.3,18.4,14.2,35.7,21.4,53.6
					h-45.2C1351.2,488.4,1358.8,471.1,1366.9,453.1L1366.9,453.1z"/>
				<path class="st0" d="M3165,619.6c21,13.4,43.3,13.6,65.2,3c18.6-9,25.7-30.4,18.4-49.3c-6.9-17.6-29-29.5-47-25.3
					c-15,3.5-20.6,17.4-11.6,30.6c-0.3-1.6-0.6-3.2-0.8-4.8c-1.1-9.3,2.8-16.6,10-19.2s15.4,0.5,20.4,7.9c8.9,13,8.6,38.8-0.7,51.6
					s-27.2,13.5-36.4,0.7c-3.9-5.6-6.5-12.1-7.6-18.8c-2.8-16.2-0.8-32,8.4-46.4c-12.7-0.8-29.4,12.9-33.1,27.5
					C3145.9,593.8,3151,610.7,3165,619.6z"/>
				<path class="st0" d="M3219.6,639.8c-6.4,0.9-12.6,2.6-18.8,2.6c-21.7,0.1-42.1-6.7-62.6-12.7c-5-1.5-5.3-5.4-5.3-9.6
					c0-19.8-0.2-39.5,0.2-59.2c0.1-3.9,2.9-7.7,4.2-11h-34.6c5.6,1.7,6.6,5.7,6.6,10.7c-0.1,18.5,0.2,37.1-0.3,55.7
					c-0.1,4.1-3.1,8.1-4,10.3c10,4,22,8.7,34,13.5c14,5.6,27.8,12.4,42.2,16.8C3198.8,662.1,3213.5,654.5,3219.6,639.8z"/>
				<path class="st0" d="M3286.6,555c4.9-1.1,10.6-1.3,15.2,0.4c4.2,1.6,7.4,6.1,11.1,9.4c0.5-4.7,1.2-10.1,2-16.8
					c-11.5,0-21.9-0.3-32.3,0.1c-10,0.3-17.8,6.3-20.6,14.9c-3.1,9.6-0.4,19.1,7.8,25.5c3.5,2.5,7,4.8,10.7,7
					c5.6,3.5,11.6,6.6,16.9,10.6c8.7,6.7,8.6,18,0.2,23.5c-13.6,9-36.6,0-39.5-16c-1.1-6,0.6-12.4,0.9-17.7
					c-11,11.9-4.7,31.7,8.5,38.9c8.3,4.6,17.2,5.2,26.3,4.3c15.1-1.4,27.8-12.2,30.6-25.8c2.3-11-4.1-21.8-17.7-29.7
					c-7.4-4.3-15.1-8.1-22.2-12.9c-2.6-1.8-5.6-6.1-5.2-8.7S3283.6,555.7,3286.6,555z"/>
				<path class="st0" d="M3243.4,447.5c5.1,1.8,8.9,7.3,12.2,10.2v-17.3h-61.3c5.9,2.4,6.6,6.8,6.6,11.9
					c-0.1,18.5,0.2,37.1-0.2,55.7c-0.1,3.9-2.9,7.7-4.2,11h61.9c0.8-4.3,1.5-8.2,2.1-12.1s1-7.8,1.5-11.7
					c-10,17-19.9,21.8-37.1,17.5v-28.6c5,0,10.1-1.2,14.3,0.3s7.1,5.6,10.3,8.4v-27.1c-5,11.3-11.4,14-24.6,11.1V447
					C3231.4,447,3238,445.5,3243.4,447.5z"/>
			</g>
		</g>
		<g id="Capa_2-2-2">
			<g id="Capa_1-2-2">
				<path class="st1" d="M764.3,210.4c2,5.4,3.8,10.8,5.8,16.2c6.7,19.1,15.5,36.7,34,46.6c9.8,4.6,20.1,8.4,30.5,11.2
					c6.2,2,9.6-2,10.5-7.6c2.5-16.5,4.7-33,6.7-49.6c1.4-9.9-2.8-19.7-10.8-25.7c-9.9-7.2-20.3-13.7-31.1-19.6
					c-5.2-3-11.1-4.6-16.5-7.3c-8.9-4.5-12-11-11.5-21.8c0.9-22.1,7.2-43.6,18.1-62.8c0,8.3,0.2,14.5,0,20.7
					c-0.4,11-1.5,21.9-1.6,32.9c-0.1,8.2,4.7,15.7,12.2,19.1c13.6,7.1,26.7,14.9,40.7,21.6c4,1.1,8.3,0.4,11.8-1.8
					c3.6-2.4,6.5-5.9,8.2-9.9c6.8-15.3,21.2-19.7,34.4-25.4c9.5-4,17.6,1.6,24.3,5.2c-6-0.7-12.1-0.4-18.1,1
					c-8,1.5-15.4,5.1-21.4,10.5c-5.5,5.3-9.4,12.2-11,19.7c-10.7,44.3-14.6,88,8,130.3c4.8,8.9,2,17.4-1.9,25.8
					c-7.2,15.7-14.2,31.5-21.1,47.4c-7.3,17.5-9.9,36.5-7.7,55.3c4.9-1.2,9.7-3,14.1-5.4c26.7-14.2,34.6-44.4,36.9-53.5
					c3-11.5,4-23.5,2.9-35.4c2.7,8.1,4.3,16.5,4.7,25c0.5,15.3-2.7,30.5-9.5,44.2c-4.8,9.4-10.5,18.4-16.9,26.8
					c-0.8,1-3.8,4.9-8.9,10.7c-8.1,8.9-14.9,14.3-27.7,27.7c-21.3,22.1-33.6,51.4-34.4,82.1c-1.2,29.5-1.2,58.7,8.1,87.2
					c1.3,4.1,2.8,8.2,4.3,12.2c0.9,2,1.9,3.9,2.9,5.7c12.7-11.5,15.9-26.2,17.8-41.3c1.3-16.4,8.6-31.8,20.5-43.2
					c19.5-17.6,31.2-42.2,32.7-68.4c2.2-30.5,12.8-59.8,30.5-84.6c6-9.5,14.5-17.2,24.6-22.2c-7.6,14.2-14.9,27.7-21.9,41.4
					c-12,23.6-13.9,49.1-12.3,74.8c1.1,11.5,3.7,22.9,7.6,33.8c3,9.3-1.5,14.7-7.6,19.6c-13.6,10.5-24.7,22.9-26.2,40.8
					c-1,12.1-0.9,23.5,12.8,30.5c9.6,4.8,11.9,16.1,7,27.3c-2.7,6.1-6.4,11.7-10.8,16.7c-23.8,27-52.9,44.8-89.1,49
					c-27.8,3.3-55.7,5.3-83.6,8.3c-30.3,3.2-61.3,2.8-89.8,15.8c-9.2,4.2-17.8,9.9-26.9,14.4c-3.9,2-8.3,3.2-12.7,3.4
					c-14.8,0.2-29.4,1.4-42.4,9.5c-14.4,8.2-21.9,24.8-18.5,41c1,6.2,0,9-6.8,10.1c-30.1,5.2-39.9,19.4-35.1,50
					c0,0.6-0.2,1.3-0.5,1.9c-14.3-7-16.5-25.3-5.6-48.7c-9.1,4-19.5,4-28.7,0c1.4,1.9,14.2,16.4,6.8,32.2
					c-3.4,6.9-7.6,13.4-12.5,19.4c1.9-41,0-43.8-43.6-57.3c7.6-28.4-7.6-45.8-30.5-59.4h-0.6c0.5,1.1,0.9,2.2,1.3,3.3
					c-12.4-0.1-24.9-1-37.2-2.8c-3.6-0.7-5.7-9-6.6-15c-0.4,3.5-0.8,6.9-1,8.4c-17.9-7-35.2-15.8-53.5-20.2s-37.4-3.8-56.2-6
					c-37.2-4-74.9-3.6-111.5-13.7c-33.7-9.2-59-29.2-78.6-56.8c-10.9-15.3-6.2-26.7,9.7-37c4.3-2.8,5.7-11.2,6.9-17.3
					c4.2-22.2-7.6-37.6-23.3-50.9c-12.7-10.5-11.5-13.7-8-29.2c4.2-17.6,5.8-35.7,4.8-53.8c-2.1-26.7-9-52.9-24.5-75.8
					c-3.7-4.9-7.2-10-10.4-15.3c12.1,3.9,19.9,12.5,26.7,22.1c18.6,26.3,29.5,57.3,31.5,89.5c1.7,24.7,9.9,45.8,27.9,62.2
					c17.3,15.6,24.3,34.8,27,57.1c1.6,10.1,5.4,19.8,11.1,28.3c6.4,9.9,16.5,16.3,31.7,17.8c-2.6-20.4-5-40.1-7.6-59.7
					c-1.3-9.5-3.1-19.1-4.4-28.6c-1.1-7.9,2.2-13.2,7.3-20c6.3-9.3,8.3-20.9,5.5-31.8c-5.1-22-13.3-41.4-35.8-52.4
					c-13.4-6.5-14.8-22.5-20.9-34.8c13.9,5.7,16.2,29.6,38.7,22.2c-6.6-9.6-13.2-18.2-18.6-27.6c-2.7-4.6-3.9-10-3.5-15.3
					c0.9-7.8,4.3-15.3,6-23.1c3.7-16.6-1.4-33.9-13.6-45.8c-18.5-20-42.4-29.4-67.8-36.4c-6-1.9-11.7-4.7-16.9-8.2
					c-11.4-7.2-15.3-17.2-11.8-30.8c3.2-12.5,4.2-25.5,6.8-38.2c1.4-4.5,3.2-8.9,5.4-13.1l3.8-6c0.7,18.8,0.9,32.7,0.9,42.5
					c-0.6,6.6,0.7,13.3,3.8,19.1c4.2,6.1,10.4,10.6,17.5,12.7c19.7,7.1,39.5,14.1,59.5,20.4c3.8,0.4,7.5-0.9,10.3-3.5
					c12.4-11.7,15.3-37.8,6.2-56.3c-3.5-7.1-8.4-13.6-12.6-20.4c-7.3-10.7-6.6-24.9,1.9-34.7c1.2-1.6,3.6-2.9,3.8-4.5
					c2.4-22.5,1.4-44.7-17.6-60.4c-7.6-6.2-18-8.9-26.7-13c10.3-10.2,26.3-11.6,38.2-3.4c10,7.2,19.6,15,28.7,23.4
					c2.6,2.9,4.1,6.7,4,10.6c0,11.6-0.8,23.3-2.6,34.8c-4.6,25.3,7.6,44.5,21.6,63.2c2.2,1.6,5,2,7.6,1.2c3.3-1.6,6.4-3.5,9.4-5.6
					c3.1-1.3,6.3-2.5,9.5-3.5c0,4.3,1.4,9.1,0,12.7c-6.1,14.7-12.8,29.2-20,43.4c-10.2,20.3-11.5,42-12.5,64.2
					c0,3.8,4.2,7.3,5.5,11.5c6.1,19.3,10.4,39.5,24.1,55.5c2.4,2.8,5,5.3,7.8,8.3c19.1-12.8,35.4-26.1,31.6-52.3
					c-0.9-9.6-1-19.3-0.4-29c0.1-3.1,1-6.2,2.5-8.9c5.2,24.8,18.5,48.6,6.5,74.5c-3.6,7.4-7.6,14.5-12,21.4
					c-8.8,13.3-13,29.2-12,45.1c1.6,25.7-1,51.8-2.3,77.6c-0.9,18.1,4.6,32.7,19.4,43.8c2.1,1.5,2.1,5.9,2.8,9
					c3.4,19.8,14,37.7,29.8,50.1c12.8-13.4,13.9-42.4,5.2-58.8c-5.3-9.8-7.4-21.6-9.7-32.8c-1.7-8.1-0.9-16.6-2.1-24.8
					s-3.3-15.5-5.1-23.8c8.5,3.2,14.6,12.2,18.1,25.9c2.7,10.5,5.4,21,8,31.5c2.2,2.9,4.5,5.7,6.8,8.6c-0.7-5.7-0.7-11.5,0-17.3
					c0.9-7.5,2.9-14.8,5.8-21.7c8.8-24.8,6.2-40.3-2.9-80.5c-0.7-3.9-0.1-7.9,1.6-11.5c6.3-13.4,3.3-34.4-6.5-45.8
					c-2.4-2.9-3.6-6.7-3.2-10.5c4.3-20.3,2.4-38.5-17.2-52.2c9.4-0.1,18,5.6,21.7,14.2c1.9,4.6,3.6,9.3,5,14.1
					c6.4,20.6,6.3,20.6,23.5,38.6c11.5-30.5,28.1-59.1,17.4-93.4c-2.3-8.6-9.4-15.1-18.1-16.6c-15.3-3.4-27.5-9.8-34.8-24.1
					c-0.3-0.6-0.7-1.1-1.3-1.5c-24.4-14.3-17.5-36.9-15.3-58.3c0.5-5,0.6-10,0.8-14.9c0.6-14.1,8-24.6,17.6-36.4
					c-0.6,1.7-1.5,4.6-2.3,8c-5.3,18.6-5.3,38.2-0.1,56.8c3.1,10,6.1,15.3,9.6,17.8c3.7,2.9,7.7,5.6,11.8,8.1
					c14,6.8,27.4,14.6,40.2,23.4l-4.1-5.1l-5.7-4.9c10.4-10.4,8.2-22.9,7.1-36c-2.4-26.7-6.6-53.2-17.6-77.6
					c-5.1-11.5-14.7-21-23.3-30.6c-9.6-10.5-20-20.3-30.5-29.9c-4.8-4.2-10.2-7.7-16-10.2c-5.8-2.6-11.1-5.5-8.8-12.2
					c8.1-23.2,20.6-42.9,46.1-51.3c-4.9,6.9-10,13.6-14.8,20.6c-9.7,14.3-7.6,25,6,35.2c1.9,1.4,3.8,2.7,5.8,3.8l26,16.3
					c9.1-30.5,26.2-58.1,49.6-79.7c16.7-15.3,36.2-27.2,57.3-35.1L429.2,0c-8.7,5.4-17,11.4-24.7,18.1C386.6,33.3,380,41.7,351.9,82
					c-3,4.4-5.6,9-8.7,13.4c-7.7,10-9,23.6-3.3,34.9c3.4,7.7,4.1,16.7,7.2,24.7c6.6,17.3,14,34.4,22.2,54c11.2-23,21.4-44,32.2-65
					c3.3-6,7.4-11.5,12.4-16.3c7.3-7.3,15.5-13.6,23.2-20.5c11.5-10.5,25-9.5,38.5-8.4l6,2.1c-4.3,1.1-8.5,2.6-12.5,4.3
					c-10.6,4.6-34.4,12-52.3,53.7c-13.1,30.2-24.9,61.1-37.6,91.3c-10,23.8-6.5,47.7-0.9,71.6c4.1,17.4,3.4,34.4-5.5,50.3
					c-15.1,27.2-20,56.9-21.3,87.5c-0.3,7,2.6,10.4,9.5,9c25.6-5,48.9-13.7,61.1-39.5c0.9-2.5,2.6-4.7,4.7-6.3
					c15.3-9.2,30.9-18.6,52-15.3c-1.8,1.4-3.8,2.6-5.9,3.4c-20,3.8-32.8,15.5-38.2,35.2c-0.7,1.5-1.1,3.1-1.5,4.7
					c-1.7,21.1-15.8,29.6-33.8,36.6c-15.3,6.5-29.8,14.8-43.1,24.6c-12.2,8.7-20,22.2-21.5,37.1c-3.3,24-3.8,47.4,7.1,70.5
					c5,10.7,5.9,23.8,6.5,35.9c0.6,13.9,1.4,27.2,9.2,39.3c1.6,3.5,2.2,7.4,1.7,11.2c-0.3,6.3-1.4,12.6-1.2,18.9
					c1.2-25.5,19.7-49.7,3.8-77.6c9.3-3.4,18.1-5.9,26.2-9.9c9.2-4.8,18.1-10.1,26.7-15.8c21.9-13.4,28.9-42,15.5-63.9
					c-2.3-3.7-5-7.1-8.3-10.1c-1.4-1.4-2.7-2.9-3.8-4.5l-3-3.5c6.7,1,13,3.6,18.4,7.6c20.7,15.9,27.9,55.8,10.5,73.6
					c-8.9,9.4-18.3,18.3-28.2,26.7c-16.6,13.9-21,30-14.7,50.8s23.7,20.9,36.1,14.4c19.6-10.7,30.6-32.3,27.8-54.4v-5.4
					c8.3,3.4,14,11.2,14.7,20.1c1.1,8.5,0.7,17.2-1.2,25.6c-2.2,8-7.9,15.1-12.2,24c12.9-13.6,24.7-11.8,35.1,2.1
					c-5-12.6-11.2-24.1-14-36.4c-3.3-14.5,4.5-29.4,15-33.8c-4,22.7,4.2,40.6,21.3,54.9c9.9,8.2,21.4,8,33.2,5.5
					c1.1-0.2,2.1-1.5,2.9-2.5c12.7-15.3,11.7-43.6-2.3-57.9c-10-10.2-21.5-19.1-30.9-30c-18.8-21.6-15.3-57.5,6.7-74.5
					c4.9-3.2,10-6.1,15.3-8.6l6.8-0.5c-3.7,2.6-7.1,5.6-10.1,8.9c-5.1,5.2-9,11.3-11.5,18.1c-4.2,12.5-2.6,25.9,2.2,39.7
					c1.6,3.2,4.1,5.8,7.1,7.6c17,11.5,33.6,24.2,54.5,28.6c2.8,1,5.4,2.4,7.9,4c-8.5,19.7-8.7,38.8,4.4,56.6
					c20.9-11.8,26.2-22.9,23.8-46.4c-0.4-6.3,0.6-12.6,2.9-18.5c11.8-31.7-3.8-72.6-34.6-89.3c-2.9-1.6-5.8-3.4-8.8-4.8
					c-8.1-3.8-11.5-10.4-14.8-18.7c-9.8-23.7-20.8-46.8-33.1-69.3c-6.7-11.3-8.3-24.8-4.5-37.4c8.3-28.1,13.4-56.3,6.2-86
					c6.9,5.8,12.5,20,12.5,33.2c0,9-1.5,17.9-2.1,26.7c-1.3,13.6-1.8,27.2-1.5,40.9c0.7,8.2,3.3,16.2,7.6,23.3
					c6.8,10.6,14.4,20.7,22.7,30.2c5.6,6.8,9.4,6.2,11.2-2.3c3.3-12.9,5.5-26,6.5-39.3c0.3-6.8-3.8-14.4-7.6-20.7
					c-3-4.9-8.7-8-13.1-12c8.2,1.4,15.7,5.4,21.3,11.5c5.9,6.8,7.1,14.2,10,41.3c3.1,28.2,3.3,26.7,3.2,30.5
					c0,20.3,11.9,33.7,25,47.7c8.5-24.8,18.5-47.8,23.8-72c2.3-10.7-5-23.5-7.5-35.4c-0.2-3.9-0.2-7.9,0-11.8
					c-0.3-4.7-1.2-9.4-1.6-14.1c-2.5-31.1-4.9-62.2-7.6-93.3c-2.5-30.2-17.6-54.9-33.8-79.4c-4.4-7.4-7.2-15.6-8.2-24.1
					c-3.5-24-6.2-48.2-8.8-72.3c-0.5-5.6,0-11.2,1.3-16.7c4.1-17.5,2.3-34.4-8.6-48.5c-5.4-7.1-13.8-12-20.9-17.7
					c-2.3-1.5-4.8-2.9-7.3-4.1c16.7-4.2,36.5,9.1,52.5,35.4c14.1-43,50-53.9,87.2-62.9c-12,6.9-24.8,12.7-35.6,21.1
					c-8.2,6.6-15,14.8-19.7,24.3c-12.8,25.4-21.8,52.2-22.2,81.2c-0.4,28.4,4.8,54.3,27.2,74.4c6.3,6.3,12.2,13,17.6,20.1
					c0.2-4,0.9-7.9,2.2-11.7c5-10.5,11-20.5,16.3-30.9c3.9-7.5,3.7-16.6-0.7-23.9c-7-13.4-13-27.3-29.2-32.2
					c-0.9-0.3-1.3-1.9-3.8-5.6c14.2,3.8,25.7,7.3,32.8,17.7c8.4,12.4,15.9,25.5,23.2,38.6c1.1,2.1,0,6.1-1.4,8.8
					c-10,22.3-18.4,45.3-21.7,70c-3.8,30.5,2.3,59.8,6.4,89.4c1.8,12.7,6.2,25,9.4,38.2c-3.5-12.1,2.1-18.6,13-21.7
					c2.2-0.6,4-2.6,6.2-3.2c21.8-5.5,30-21.5,34.4-41.7c3.3-15.3,12.5-22.3,26.7-23.7c-5.3,5.1-12.7,9.2-15.3,15.3
					c-4.3,10.4-7,21.4-7.9,32.7c-1,9.7-3.8,16.3-12.8,20.6c-17.5,8.4-27.7,23.6-35.6,40.6c-1.2,4.1-1.7,8.4-1.7,12.7
					c-0.5,7.7-1.7,15.4-3.5,22.9c-7.3,22.4-18.3,43.6-19.4,67.9c-0.9,19.7,3.5,39.4,12.7,56.8c2.3,5.7,3.3,11.8,2.8,17.9
					c-0.3,9.5-2.4,19.1-3.1,28.6c-1.3,18.9,7.3,31.8,24,39.4c24.1-26,32.8-58.7,41.5-93l-5.8,9.4c-0.8-16.1-1-30.3-2.2-44.3
					c-0.7-10.3-2.4-20.5-5-30.5c-2.6-6.5,0.5-13.8,7-16.4h0.1c27.9-14.6,46.4-42.3,49.3-73.6c2.1-20.2,10.2-36.4,17.9-53.7
					c6.3-14.7,11.7-29.7,16.2-45.1c3.1-9.9-5.4-14.2-12.1-18.2c-12.8-7.6-25.8-15.3-39-22.3c-8-4.2-14.8-10.4-19.7-18
					c-4.5-7.4-5.5-14.2-7.1-24.5C763.7,232.1,763.4,221.2,764.3,210.4z M484.5,746c-14.4,13.7-26.7,28.6-28.8,49.6
					c-1.8,14.3,7.9,27.4,22.1,30c14.7,3.1,29.4-5.5,33.9-19.9C517.6,789,503.3,760.5,484.5,746z M437.6,763.2
					c-13.9,24.2-7,54.3,14.5,68c6.2-4.4,7.6-9.1,2.9-15.9c-5.6-8.5-6.6-19.3-2.7-28.7c1.7-5,3.3-10,5.3-15.8L437.6,763.2z
					 M512.1,770.4c0,2.7-0.3,3.8,0,4.6c7.1,13.6,6.6,29.9-1.5,43c-3.8,6.3,1.6,9.4,7,11.7c13.7-12.8,21.2-28,19.1-46.5
					c-0.8-6.5-3-15-7.6-18.3C526.2,762.7,517.7,768.4,512.1,770.4L512.1,770.4z M480.6,718.9l-38.7,38l7.6,4.4
					c6.3,3.4,6.9,3.6,7.6,3.6c3.1,0,6.7-2.4,12.2-8.7c1.5-1.8,3.1-3.4,4.9-5C483.7,743.1,484.1,733.2,480.6,718.9L480.6,718.9z
					 M487.1,718.6c-5.5,18.1,4.9,27.7,13,38.2c1.9,2.4,3.3,5.7,6.7,6.7c3,0.5,6,0.1,8.7-1.2c3.7-1.1,7.2-2.6,10.6-4.5L487.1,718.6z
					 M307.6,656.8c2.1,0.5,15.9-30.5,18.2-69.5c2-34.9-6.9-46.4-7.1-76c0-21.2,4.2-51.9,26-89.8c-25.6,24.3-34.4,46.7-37.7,62.4
					c-7.6,36,10,52.5,9.1,107.2C315.4,630.4,305.8,656.3,307.6,656.8z M483.5,846.9c6.9-0.1,13.7-2.4,19.1-6.7
					c3.1-2.5,5.7-5.6,7.6-9.2c-3.3-1.5-7-4.9-9.7-4.2c-11.5,2.9-22.2,6.2-33.8,0.5c-5.6-2.8-7.9,3-8.3,4.7c-0.8,3.2,3.8,6.8,6,8.4
					c5.6,4.1,12.3,6.3,19.2,6.5L483.5,846.9z M232.9,702.3c-1.5-7.9-3.9-15.6-7.1-22.9c-10-22.5-22.4-28.8-30.9-45.3
					c-4.8-9.3-9.4-24-6.6-46.5c-13.5,26.2-11.7,42-7.3,51.5c5.3,11.5,14.4,14.5,29.9,31.8C219.3,680.5,226.8,691,232.9,702.3z
					 M675.9,331.2c1.7-12.2,0.9-24.6-2.6-36.5c-5.8-19.1-16.4-27.8-28-42.9c-28.3-37.2-31.1-73.5-33.5-72.8s-2.1,41,22.1,75.1
					c10,14.2,19.5,20.7,29.5,40.6C669.3,306.2,673.5,318.5,675.9,331.2L675.9,331.2z M667.2,552.1c12.4,58.1,9.2,118.5-9.4,174.9
					c13.4-18.7,22.7-40,27.3-62.5C696,610,674.7,566.2,667.2,552.1L667.2,552.1z M843.2,395.8c28.8-32.7,32.4-56.4,30.6-71.8
					c-0.3-2.8-2-11.5-5.4-28.3c-3.8-18.4-6.8-33.6-8.9-43.9c-1.2,15.3-1,30.6,0.8,45.8c0.4,3.4,1.7,12.4,2.6,25
					c0.6,8.1,0.8,15,0.9,17C864,357.7,852.9,379.9,843.2,395.8L843.2,395.8z M153.6,422.1c1.3,15.5,5.3,30.7,11.7,44.8
					c8.6,18.7,15.3,21.5,20.5,36.4c10.7,30.6-3.6,58-1.6,58.5s23.3-34.4,11.7-65.6c-4.4-11.9-10.2-14.2-22.9-34.4
					C165.3,449.2,158.8,435.9,153.6,422.1L153.6,422.1z M444.4,112.8c-13.5,6.9-25.2,17.1-33.9,29.5c-13.8,19.9-16.7,42-15.3,42.3
					s5.4-15.3,17.7-34.9C421.5,136,432.1,123.6,444.4,112.8L444.4,112.8z M597.1,772.5c-6.2-15.9-9.8-32.6-10.7-49.6
					c-1.5-29.6,6.3-43.4-1.3-61.1c-4.1-9.6-13.8-22.5-39.3-32.5c11.9,5.9,21.7,15.3,28,27c11.5,22.4,0.5,40.6,6.5,73.1
					c2.9,15.3,8.5,29.9,16.7,43.1L597.1,772.5z M73.2,599.9c-1.5,0.3-0.9,16.8,5,34.1c6.7,20,14.6,23.7,18.2,39.6
					c2.2,10.4,1.8,21.3-1.1,31.5c11.1-17.3,11.7-29.8,10.2-38.2c-2.5-14-11.5-17.6-22.5-42.3C76.4,609.9,74.4,599.6,73.2,599.9z
					 M350.6,260.9c3.5,11.9,5.9,24.1,7.1,36.4c1.4,14.6,1.3,29.4-0.4,44c-1.5,14.6-4.4,29.1-8.7,43.1
					C374.4,347.5,375.1,298.6,350.6,260.9L350.6,260.9z M39.2,465c3,13.4,4.3,27.2,3.8,41c-0.9,22.9-6.5,34.4-0.7,48.7
					c4.2,9.3,11.3,17,20.2,22c-5.9-10-9.8-21-11.5-32.4c-2.5-16.9,1.6-25.2,0-42.4C49.6,488.9,45.5,476.4,39.2,465z M773,710.7
					c1.2,0,0-16.5,4.9-35.4c5.8-21.8,16.3-32.2,22.2-42.7c9.1-16,14.2-43.3-5.7-92.8c9.3,42.3,3,69.7-5.2,87.4
					c-5.8,12.5-16.9,29.6-18.5,56.2C769.9,697.6,772,710.7,773,710.7z M681,492.3c25.7-31.2,25.5-76.2-0.3-107.2
					C694.9,419.4,695.1,457.9,681,492.3L681,492.3z M318,309.3c-30.9-13.4-50.9-44-50.8-77.7c-1.1,9.9-1.1,20,0,29.9
					c0.6,5.6,1.8,11,3.4,16.4C278.4,299.7,310.6,307.6,318,309.3L318,309.3z M356.5,231.3c-18.3-34.5-29.6-72.3-33.1-111.2
					c-2.6,16.2-2.2,32.7,1.2,48.7C329.5,192.1,340.6,213.7,356.5,231.3L356.5,231.3z M834.2,411c12.1,47.2-29.7,75.6-41.6,114.3
					c9.5-11.9,15.3-27.1,26.3-36C846.8,466.9,843.4,440,834.2,411z M286.9,671.7c3.7,9.2,6.1,18.8,7.2,28.6
					c1.1,10.8,0,16.4,0.4,21.3c0.8,10.8,9.2,25.9,44.7,43.2c-11.4-7.5-20.6-18-26.3-30.3c-4.2-9.4-3.8-15-7.6-27.1
					C301,694.6,294.8,682.6,286.9,671.7z M264.4,562.3c-2.3,12.4-0.9,25.2,3.8,36.9c2.6,6,5,8.5,8.7,15.7c5.4,10.5,9,21.7,10.6,33.4
					c2.9-8.6,3.1-18,0.6-26.7c-3.4-11-9.9-14.7-15.9-25.7C266.8,585.6,264.1,574,264.4,562.3z M97.7,338.9
					c10.2,6.7,19.3,15,26.7,24.7c-2.8-11.4-8.9-21.8-17.5-29.9c-22.2-19.7-49.1-9.4-68.7-28.2c-6.3-6-13.7-16.6-15.8-36.9
					c-6.6,20.2-3.3,31,0.5,37.1C34.9,324.8,64.4,317,97.7,338.9z M276.1,117.4c-5.4-4.9-10.2-10.5-14.1-16.6
					c-3.8-6.2-6.6-10.2-7.1-16.1c-0.5-7.1,1.7-14.2,6.1-19.8c-1.3,1.2-13.1,11.5-11.2,24.7c1.3,6.3,4.5,12,9.3,16.2
					c4.7,5.1,10.6,9,17.1,11.4L276.1,117.4z M149.4,261.6c-0.9,13.7-2.5,27.4-4.9,40.9c-3,16.8-5.4,23.6-6.8,32.1
					c-2.4,14.6-2.3,35.9,9.7,64.4c-3.1-21.3-2.5-42.9,1.6-64c3.4-12.9,5.2-26.1,5.5-39.4C154.3,284.1,152.6,272.6,149.4,261.6z
					 M885.2,692.8c-3.3-10.6-4.9-21.7-4.9-32.8c0.1-16,3.7-31.8,10.6-46.3c-8.4,9.4-13.8,20.9-15.8,33.3
					C872.8,663,876.4,679.3,885.2,692.8z M473.1,673.7c-6.9,23.9-20.3,45.5-38.6,62.4c14.1-3.6,26.1-12.7,33.4-25.4
					C474.1,699.4,475.9,686.3,473.1,673.7L473.1,673.7z M899.8,594.4c1.2,0.9,13.7-9.1,18.5-24.4c3.3-10.3,1.3-17.5,0-31.2
					c-1.4-14.7-1.3-29.5,0.3-44.2c-3.9,13-6.1,26.4-6.5,40c-0.4,16.1,2,24.8-2.6,39.1C905.4,586.5,898.9,593.7,899.8,594.4
					L899.8,594.4z M234.2,399c-1.8,0,0.7,16.5-10.4,31.5c-6.7,9-13.2,10.5-16.9,20.2c-2.1,5.8-2.6,12.1-1.3,18.2
					c3-6.6,6.7-12.9,11-18.8c8.1-10.9,12.5-12.3,16.3-20C240.1,415.8,236,399.1,234.2,399z M421.9,630.5c9.7-4,17.7-11.2,22.6-20.5
					c7.4-16.5,4.8-35.8-6.8-49.7c9.1,24.5,2.9,52.1-15.7,70.4V630.5z M390,712.8c-1.6,0.9,10.7,16,9.3,37.8
					c-0.7,9.5-3.7,18.6-8.6,26.7c3.1-2.1,15.8-11,18-26.3C411.8,729.4,391.8,711.8,390,712.8L390,712.8z M187.4,742.2
					c1.4-6.3,1.4-12.8,0-19.1c-2.6-10.7-8.4-15.3-15.6-28c-4.1-7.3-7.3-15-9.8-22.9c-1.1,10.9,0.7,21.9,5.2,31.8
					c2.9,6,6,9.4,11.7,20.2C182.1,730.1,184.9,736.1,187.4,742.2L187.4,742.2z M376.8,675.2c-5.5,15.3,3.8,32,4.5,31.8
					s-4.4-10.3-1.1-22.9c2.7-10.3,8.9-14.5,19.7-27.7c6.6-8.1,12.5-16.7,17.7-25.7c-4.4,5-11.5,13-21.1,22.1
					C383.7,665.4,379.3,668,376.8,675.2L376.8,675.2z M348.3,58.7c-13.6,12.9-22.4,30.1-24.9,48.8c5.8-12.2,12.8-23.8,21-34.6
					c6.4-8.1,13.2-15.9,20.5-23.2c8.1-8.6,19.4-20,33.6-33.2c-12.2,6.7-23.5,14.9-33.6,24.4C358.9,46.4,353.4,52.4,348.3,58.7z"/>
			</g>
		</g>
	</g>
</g>
</svg>
